<svg width="200" height="84" viewBox="0 0 200 84" fill="none" xmlns="http://www.w3.org/2000/svg">
<path d="M15.6581 41.5033L3.66831 52.266C1.92874 53.8232 0.785449 55.4593 0.27294 57.1545C-0.175505 58.6428 -0.0720138 60.0275 0.588334 61.3236C1.31767 62.5753 2.53981 63.5707 4.28924 64.2951L16.9245 52.6553C16.0671 48.9642 15.6039 45.214 15.6531 41.4984L15.6581 41.5033Z" fill="#1F1E1D"/>
<path d="M43.3535 22.5307C42.225 22.1906 41.1556 22.1463 40.1405 22.437C39.1401 22.6736 38.0757 23.2452 36.957 24.1865L24.6371 34.826C24.6913 34.4909 24.7554 34.1557 24.8244 33.8256C28.0867 17.6865 44.1716 9.39764 59.1526 6.52956C60.222 6.34229 61.2962 6.16489 62.3755 6.00719C65.3569 5.5686 67.5646 3.01099 67.4907 0C64.3614 0.271038 61.2273 0.645565 58.098 1.14822C45.512 3.49393 32.4824 8.94919 24.6667 19.6133C19.9703 26.1675 18.0238 33.2983 18.0188 40.5424C18.0139 44.3714 18.556 48.235 19.5169 52.0492C21.8084 61.1265 26.4851 69.9771 31.9403 77.6549C32.9112 79.0298 33.9165 80.3653 34.9218 81.6564C36.0848 83.1348 38.4009 82.78 39.1204 81.0454C39.2485 80.7448 39.3816 80.4195 39.5048 80.0795L46.6651 27.1235C46.7489 24.7532 45.6253 23.2157 43.3437 22.5257L43.3535 22.5307ZM33.399 67.8975C33.1526 67.5082 32.9062 67.114 32.6746 66.7148C29.092 60.7323 26.1352 54.1288 24.8736 47.3036L37.0161 36.5557L33.3941 67.9025L33.399 67.8975Z" fill="#1F1E1D"/>
<path d="M70.2994 47.1459C69.1167 47.6337 68.4564 48.3384 68.3184 49.2797C68.6338 49.7774 68.8752 50.2209 69.0477 50.6349L68.7323 50.8468C67.9044 49.3191 66.8499 48.2054 65.608 47.5056C64.3514 46.7763 62.8139 46.4116 61.0151 46.4116C58.0485 46.4116 55.5106 47.2839 53.3866 49.0234C51.2725 50.763 49.9666 53.0594 49.4788 55.9127L48.1729 63.4821C48.0595 64.0389 48.0102 64.5958 48.0102 65.1527C48.0102 67.4491 48.7889 69.3217 50.3559 70.7903C51.9526 72.2194 54.0569 72.9241 56.6687 72.9241C57.9943 72.9241 59.4628 72.6727 61.0595 72.1454C62.6562 71.5886 63.9226 70.9332 64.8639 70.1644L65.0265 70.4256C64.7456 70.6966 64.307 71.0514 63.7206 71.4654L63.4594 72.8206C63.075 74.6636 62.3753 76.0188 61.3749 76.8861C60.3942 77.7978 59.0292 78.2413 57.2452 78.2413C53.8351 78.2413 52.1941 76.8369 52.337 74.023C50.4249 74.023 48.9761 74.368 48.0053 75.0628C47.0345 75.7921 46.5466 76.8517 46.5466 78.2413C46.5466 79.9218 47.4287 81.277 49.2077 82.3168C51.0212 83.3566 53.3669 83.8839 56.2498 83.8839C60.0739 83.8839 63.3017 82.78 65.9135 80.5969C68.5549 78.399 70.2058 75.4472 70.8711 71.7216L75.3013 46.4067C73.1478 46.4067 71.4772 46.6481 70.2945 47.136L70.2994 47.1459ZM66.5345 56.1739L65.3419 63.1766C65.1694 64.1769 64.5239 65.0492 63.4101 65.7884C62.326 66.4783 61.0743 66.8282 59.6452 66.8282C58.2161 66.8282 57.1763 66.567 56.4174 66.0397C55.6782 65.5223 55.3135 64.7535 55.3135 63.7433C55.3135 63.3983 55.3332 63.1371 55.3628 62.9646L56.5159 56.44C56.7574 55.1538 57.3438 54.183 58.285 53.5177C59.2657 52.8623 60.5716 52.5272 62.2028 52.5272C63.489 52.5272 64.5386 52.8229 65.3419 53.4192C66.1698 54.0056 66.5985 54.7546 66.5985 55.6663C66.5985 55.9078 66.5788 56.0803 66.5394 56.1838L66.5345 56.1739Z" fill="#1F1E1D"/>
<path d="M79.8349 50.5905L75.8137 73.4563C78.2826 73.4563 80.1454 73.1261 81.3971 72.4657C82.6833 71.8054 83.4521 70.741 83.6935 69.2823L87.7148 46.4165C85.2458 46.4165 83.3831 46.7664 82.1314 47.4612C80.8797 48.1216 80.1109 49.1663 79.8349 50.5954V50.5905Z" fill="#1F1E1D"/>
<path d="M113.961 62.3338H127.114C128.085 62.3338 128.927 62.0628 129.622 61.5059C130.352 60.9392 130.805 60.2296 130.978 59.3623L131.495 56.5385C131.608 55.9225 131.658 55.3262 131.658 54.7694C131.658 53.1727 131.244 51.7436 130.401 50.487C129.603 49.2008 128.449 48.2103 126.961 47.5105C125.493 46.7812 123.793 46.4165 121.841 46.4165C119.515 46.4165 117.347 46.86 115.366 47.7717C113.424 48.6439 111.783 49.8759 110.457 51.4726C109.171 53.0397 108.353 54.8532 108.008 56.9081L106.806 63.5855C106.737 63.9009 106.702 64.3641 106.702 64.99C106.702 65.951 106.865 66.8528 107.19 67.7004C103.366 67.4885 99.8426 67.2864 99.6701 67.2864C98.6993 67.2864 97.9798 67.1139 97.5363 66.769C97.1125 66.4142 96.9105 65.8573 96.9105 65.0886C96.9105 64.8865 96.94 64.5317 97.0139 64.0488L106.19 9.96924C103.691 9.96924 101.809 10.3043 100.552 10.9598C99.3399 11.6152 98.5909 12.6796 98.3051 14.1482L89.8093 64.3149C89.7058 64.9407 89.6565 65.5518 89.6565 66.1481C89.6565 68.3361 90.3563 70.1151 91.741 71.4703C93.1356 72.7959 94.9984 73.4513 97.3244 73.4513C98.6205 73.4513 114.769 73.54 117.248 73.4513C119.293 73.4316 121.186 73.1359 122.935 72.5593C124.788 71.9335 126.242 71.1007 127.326 70.0609C128.4 69.0063 128.947 67.8975 128.947 66.7099C128.947 64.8668 127.622 63.9453 124.98 63.9453C124.729 63.9453 124.231 63.9748 123.462 64.0488C123.29 65.2315 122.713 66.153 121.742 66.8232C120.801 67.4786 119.579 67.8137 118.091 67.8137C116.696 67.8137 115.632 67.4786 114.902 66.8232C114.173 66.153 113.808 65.2265 113.808 63.9995C113.808 63.5855 113.818 63.2701 113.858 63.0582L113.961 62.3289M125.029 56.5287L124.867 57.2679H114.848L115.001 56.5287C115.282 55.1439 115.942 54.0499 116.982 53.2417C118.066 52.4138 119.328 51.995 120.796 51.995C122.265 51.995 123.295 52.2906 124.034 52.877C124.793 53.4733 125.177 54.3062 125.177 55.3854C125.177 55.7303 125.128 56.1147 125.025 56.5287H125.029Z" fill="#1F1E1D"/>
<path d="M167.065 46.6235C166.474 46.4855 165.882 46.4165 165.291 46.4165C164.177 46.4165 163.167 46.6777 162.265 47.2C161.393 47.6879 160.802 48.3335 160.491 49.1318L153.863 65.8869L153.548 65.7834L154.957 62.4965L154.016 48.7671C153.981 48.0378 153.666 47.4612 153.075 47.0424C152.518 46.6235 151.788 46.4165 150.882 46.4165C149.975 46.4165 149.177 46.6235 148.482 47.0424C147.821 47.4612 147.334 48.0329 147.018 48.7671L139.71 65.3153L139.395 65.2118L140.646 62.0776L140.331 49.1318C140.296 48.3335 139.912 47.6879 139.183 47.2C138.488 46.6777 137.581 46.4165 136.467 46.4165C135.911 46.4165 135.299 46.4855 134.639 46.6235C133.979 46.727 133.491 46.8649 133.176 47.0424L135.053 69.435C135.157 70.6867 135.768 71.6822 136.881 72.4115C137.995 73.1064 139.473 73.4563 141.317 73.4563L149.251 55.4987L149.093 53.0988L149.408 52.9953L150.818 73.4563C152.626 73.4563 154.228 73.0916 155.618 72.3623C157.047 71.6329 158.037 70.6572 158.594 69.44L168.356 47.0473C168.08 46.8748 167.642 46.7319 167.05 46.6284L167.065 46.6235Z" fill="#1F1E1D"/>
<path d="M170.86 50.5905L166.838 73.4563C169.307 73.4563 171.17 73.1261 172.422 72.4657C173.708 71.8054 174.477 70.741 174.718 69.2823L178.739 46.4165C176.271 46.4165 174.408 46.7664 173.156 47.4612C171.904 48.1216 171.136 49.1663 170.86 50.5954V50.5905Z" fill="#1F1E1D"/>
<path d="M196.864 66.2516C195.435 66.9514 194.114 67.2914 192.897 67.2914C191.985 67.2914 191.33 67.1386 190.916 66.8282C190.532 66.5128 190.34 65.9658 190.34 65.2069C190.34 64.995 190.369 64.6106 190.443 64.0537L192.537 52.1527H193.075C193.075 52.1527 193.873 52.1428 195.13 52.1428C195.139 52.1428 195.154 52.1428 195.164 52.1428C197.559 52.1182 199.491 50.1716 199.491 47.7766V46.8798H193.37L194.839 38.5811C192.399 38.5811 190.571 38.9063 189.354 39.5716C188.171 40.227 187.442 41.2914 187.156 42.76L186.427 46.8798H184.391C183.238 46.8798 182.268 47.343 181.469 48.2842C180.671 49.1959 180.134 50.4821 179.848 52.1477H185.382L183.238 64.31C183.105 65.0393 183.036 65.8081 183.036 66.6064C183.036 68.8043 183.662 70.4896 184.909 71.6674C186.166 72.8501 187.945 73.4464 190.241 73.4464C192.286 73.4464 194.026 72.9586 195.45 71.9779C196.918 71.0071 197.648 69.8244 197.648 68.4347C197.648 68.0109 197.579 67.6166 197.446 67.2323C197.303 66.8183 197.111 66.4832 196.869 66.2417L196.864 66.2516Z" fill="#1F1E1D"/>
<path d="M114.612 17.659L108.882 22.2267L113.45 27.9568L119.18 23.389L114.612 17.659Z" fill="#1F1E1D"/>
<path d="M119.678 24.0157L113.948 28.5834L118.515 34.3135L124.245 29.7458L119.678 24.0157Z" fill="#1F1E1D"/>
<path d="M113.267 29.1252L107.537 33.6929L112.104 39.423L117.834 34.8553L113.267 29.1252Z" fill="#1F1E1D"/>
<path d="M81.0356 21.6423L85.0203 27.7922L91.1701 23.8076L87.1855 17.6577L81.0356 21.6423Z" fill="#1F1E1D"/>
<path d="M74.2097 26.0658L78.1943 32.2156L84.3442 28.231L80.3596 22.0812L74.2097 26.0658Z" fill="#1F1E1D"/>
<path d="M78.6663 32.9445L82.6509 39.0944L88.8007 35.1097L84.8161 28.9599L78.6663 32.9445Z" fill="#1F1E1D"/>
</svg>
