<svg width="45" height="52" viewBox="0 0 45 52" fill="none" xmlns="http://www.w3.org/2000/svg">
<path d="M15.5328 38.0192C15.1175 38.0192 14.7038 38.0242 14.2884 38.0175C13.3723 38.0007 12.6404 37.3894 12.4578 36.4884C12.4093 36.2455 12.3741 35.9976 12.3473 35.7514C12.3155 35.4567 12.3054 35.1954 11.9521 35.0363C11.5735 34.8671 11.3056 34.9191 11.0259 35.1904C10.8718 35.3394 10.6892 35.46 10.5134 35.584C9.68936 36.1618 8.74308 36.1149 8.00784 35.4366C7.43504 34.9073 6.87733 34.3613 6.33301 33.8036C5.58436 33.0349 5.52407 32.1204 6.13873 31.2328C6.23252 31.0971 6.33301 30.9648 6.43015 30.8308C6.81871 30.2982 6.83378 29.9951 6.45192 29.4658C6.37823 29.3636 6.21242 29.3034 6.07843 29.2766C5.78701 29.2179 5.48722 29.1978 5.19413 29.1509C4.24115 29.0019 3.58964 28.2616 3.57792 27.3003C3.56787 26.488 3.56954 25.674 3.57624 24.8617C3.58629 23.9355 4.18253 23.2053 5.08191 23.0144C5.34151 22.9591 5.60446 22.9239 5.86741 22.8988C6.17055 22.8687 6.41675 22.8352 6.56748 22.4801C6.72492 22.1133 6.64285 21.8822 6.4201 21.5941C5.2494 20.0834 5.28792 19.4554 6.60935 18.0837C7.05821 17.6181 7.50371 17.1441 7.98941 16.7204C8.77658 16.0354 9.43311 16.027 10.2789 16.6283C10.428 16.7338 10.5988 16.8209 10.716 16.9549C11.1532 17.454 11.6204 17.2881 12.081 17.0235C12.1882 16.9616 12.2719 16.8075 12.3054 16.6802C12.3657 16.4574 12.3741 16.223 12.4126 15.9935C12.6371 14.6637 13.2651 14.1261 14.5949 14.1261C15.3084 14.1261 16.0219 14.1194 16.7354 14.1277C17.6816 14.1395 18.4169 14.7575 18.5894 15.6837C18.6346 15.9282 18.6715 16.1744 18.6966 16.4206C18.7267 16.7221 18.7569 16.9666 19.1153 17.119C19.4837 17.2747 19.7316 17.2161 19.9996 16.9683C20.157 16.8225 20.3379 16.7003 20.5121 16.5747C21.3495 15.9768 22.3058 16.027 23.0562 16.7271C23.6139 17.2479 24.1599 17.7822 24.6925 18.3282C25.4646 19.1171 25.5248 20.0198 24.8851 20.9359C24.7996 21.0582 24.7109 21.1788 24.6221 21.2977C24.2034 21.8721 24.1934 22.0698 24.5786 22.6643C24.6255 22.738 24.7159 22.8017 24.798 22.8301C24.9219 22.8703 25.0576 22.8837 25.1882 22.8938C26.7826 23.0261 27.5866 23.753 27.4727 25.4295C27.4308 26.0408 27.471 26.6571 27.4643 27.2701C27.4542 28.2114 26.8329 28.9617 25.9201 29.1409C25.6773 29.1878 25.4294 29.223 25.1832 29.2498C24.8851 29.2816 24.6288 29.3034 24.4764 29.6601C24.3223 30.0202 24.3843 30.253 24.6121 30.5444C25.8012 32.0702 25.7543 32.7016 24.3994 34.09C24.0276 34.4702 23.6624 34.8554 23.2823 35.2255C22.4984 35.9893 21.5589 36.0646 20.6645 35.4466C20.5422 35.3612 20.4233 35.2708 20.3027 35.1837C19.7015 34.7449 19.5708 34.7315 18.9428 35.1301C18.8373 35.1971 18.7552 35.3528 18.7284 35.4818C18.2276 37.8868 18.0685 38.0192 15.6266 38.0175C15.5998 38.0192 15.5663 38.0192 15.5328 38.0192ZM15.5931 21.1453C12.8816 21.0867 10.6574 23.2489 10.5938 26.0039C10.5318 28.7071 12.6974 30.9346 15.4558 31.0016C18.159 31.0669 20.3982 28.8913 20.4551 26.1413C20.5087 23.4297 18.3449 21.2039 15.5931 21.1453Z" fill="#25AAE1"/>
<path d="M28.0723 0.583496C28.2984 0.673937 28.5312 0.752654 28.7523 0.858168C29.9129 1.40919 30.6381 2.31694 30.6465 3.60991C30.68 8.35637 30.6599 13.1012 30.6582 17.8476C30.6582 17.9113 30.6465 17.9766 30.6381 18.0737C30.1273 18.0737 29.6232 18.0737 29.0839 18.0737C29.0839 14.915 29.0839 11.768 29.0839 8.58414C20.0449 8.58414 11.0443 8.58414 2.01033 8.58414C2.01033 20.2376 2.01033 31.891 2.01033 43.573C11.0125 43.573 20.003 43.573 29.0471 43.573C29.0471 39.89 29.0471 36.202 29.0471 32.4789C29.6048 32.4789 30.1072 32.4789 30.6599 32.4789C30.6599 32.6715 30.6599 32.8507 30.6599 33.0282C30.6599 38.1063 30.6616 43.1844 30.6599 48.2625C30.6599 50.1785 29.2882 51.5602 27.3756 51.5602C19.4754 51.5619 11.5753 51.5619 3.67343 51.5602C1.76078 51.5602 0.387417 50.1818 0.387417 48.2658C0.385743 33.5139 0.385742 18.7604 0.385742 4.00852C0.385742 2.26167 1.17961 1.18978 2.85611 0.667237C2.89966 0.653839 2.93483 0.611968 2.97335 0.583496C11.3408 0.583496 19.7065 0.583496 28.0723 0.583496ZM15.5279 48.378C16.7873 48.378 18.0451 48.3814 19.3046 48.3764C19.9125 48.3747 20.3045 48.0531 20.3011 47.5741C20.2978 47.0985 19.9059 46.7836 19.2945 46.7819C16.7773 46.7786 14.2583 46.7786 11.7411 46.7819C11.1298 46.7819 10.7429 47.1018 10.7445 47.5842C10.7479 48.0598 11.1398 48.3747 11.7494 48.3764C13.0106 48.3814 14.2701 48.378 15.5279 48.378ZM13.1228 5.36345C14.0992 5.36345 15.0773 5.36513 16.0537 5.36345C16.7136 5.36178 17.1072 5.06868 17.1156 4.57796C17.124 4.08388 16.727 3.76902 16.0772 3.76902C14.1059 3.76734 12.1363 3.76734 10.1651 3.76902C9.54872 3.76902 9.16184 4.07551 9.15346 4.55451C9.14509 5.03519 9.53365 5.3601 10.1416 5.36345C11.1348 5.36848 12.128 5.36345 13.1228 5.36345ZM20.3145 3.77069C20.0499 3.77069 19.7853 3.75562 19.5223 3.77404C19.0567 3.80586 18.7217 4.14083 18.715 4.55619C18.7083 4.96652 19.045 5.33498 19.5022 5.35675C20.0298 5.38187 20.559 5.3802 21.0866 5.35843C21.5505 5.34 21.8888 4.98997 21.8939 4.57796C21.8989 4.14753 21.5472 3.80084 21.0565 3.77237C20.8103 3.75729 20.5624 3.76902 20.3145 3.77069Z" fill="#1F1E1D"/>
<path d="M37.8481 24.4817C39.9031 24.4817 41.9581 24.4817 44.0148 24.4834C44.6546 24.4834 44.9963 24.7597 44.9996 25.2689C45.003 25.783 44.6613 26.0711 44.0299 26.0711C39.9031 26.0728 35.7764 26.0728 31.6479 26.0711C31.0098 26.0711 30.6665 25.7931 30.6631 25.2839C30.6598 24.7681 30.9981 24.4834 31.6312 24.4817C33.7046 24.48 35.7764 24.4817 37.8481 24.4817Z" fill="#25AAE1"/>
<path d="M34.6408 19.7033C36.1816 19.7033 37.7225 19.7017 39.2633 19.7033C39.8897 19.705 40.2297 19.9981 40.218 20.519C40.2079 21.013 39.873 21.2911 39.27 21.2911C36.1883 21.2927 33.105 21.2927 30.0233 21.2911C29.3986 21.2911 29.0569 20.993 29.0687 20.4738C29.0804 19.9763 29.4103 19.7033 30.0166 19.7017C31.5591 19.7017 33.1 19.7033 34.6408 19.7033Z" fill="#25AAE1"/>
<path d="M34.5958 30.8509C33.0717 30.8509 31.5477 30.8526 30.0236 30.8492C29.3972 30.8476 29.0572 30.5495 29.0723 30.0303C29.0857 29.5362 29.4189 29.2615 30.0236 29.2615C33.1052 29.2598 36.1869 29.2598 39.2686 29.2615C39.8715 29.2615 40.2082 29.5379 40.2199 30.0303C40.2333 30.5495 39.8933 30.8492 39.2686 30.8492C37.7093 30.8526 36.1517 30.8509 34.5958 30.8509Z" fill="#25AAE1"/>
<path d="M18.894 26.0895C18.8873 27.9167 17.3448 29.4492 15.5192 29.4408C13.6853 29.4341 12.1579 27.9084 12.1528 26.0795C12.1478 24.2338 13.7088 22.6829 15.5527 22.7013C17.385 22.7231 18.9007 24.2589 18.894 26.0895Z" fill="#25AAE1"/>
</svg>
