<svg width="207" height="34" viewBox="0 0 207 34" fill="none" xmlns="http://www.w3.org/2000/svg">
<g clip-path="url(#clip0_108_365)">
<path fill-rule="evenodd" clip-rule="evenodd" d="M204.086 9.20762H203.742V9.98611H204.066C204.36 9.98611 204.543 9.86348 204.543 9.59755C204.543 9.34058 204.38 9.20762 204.086 9.20762ZM204.777 11.4728L203.995 10.345H203.742V11.4322H203.294V8.79771H204.086C204.634 8.79771 204.999 9.07397 204.999 9.56586C204.999 9.94546 204.796 10.1914 204.472 10.2941L205.223 11.3708L204.777 11.4728ZM204.097 8.09018C203.001 8.09018 202.128 8.84869 202.128 10.2017C202.128 11.5451 203.001 12.303 204.097 12.303C205.202 12.303 206.074 11.5451 206.074 10.2017C206.074 8.84869 205.193 8.09018 204.097 8.09018H204.097ZM204.097 12.5792C202.737 12.5792 201.793 11.6264 201.793 10.2017C201.793 8.78737 202.758 7.81323 204.097 7.81323C205.456 7.81323 206.399 8.77773 206.399 10.2017C206.399 11.6161 205.436 12.5792 204.097 12.5792Z" fill="#1C70C4"/>
<path fill-rule="evenodd" clip-rule="evenodd" d="M144.826 27.682H144.587V28.2193H144.812C145.015 28.2193 145.141 28.1353 145.141 27.9506C145.141 27.7736 145.029 27.682 144.826 27.682ZM145.301 29.2458L144.763 28.4673H144.587V29.2176H144.279V27.3988H144.826C145.203 27.3988 145.455 27.5903 145.455 27.9293C145.455 28.1911 145.316 28.3612 145.091 28.4322L145.61 29.1749L145.302 29.2451L145.301 29.2458ZM144.833 26.911C144.077 26.911 143.474 27.4346 143.474 28.3688C143.474 29.2947 144.077 29.8183 144.833 29.8183C145.596 29.8183 146.199 29.2947 146.199 28.3688C146.199 27.4346 145.588 26.911 144.833 26.911ZM144.833 30.0098C143.894 30.0098 143.243 29.3519 143.243 28.3688C143.243 27.3919 143.908 26.7202 144.833 26.7202C145.771 26.7202 146.422 27.385 146.422 28.3688C146.422 29.3443 145.756 30.0098 144.833 30.0098Z" fill="#043769"/>
<mask id="mask0_108_365" style="mask-type:luminance" maskUnits="userSpaceOnUse" x="0" y="1" width="32" height="33">
<path d="M0.322266 1.52466H31.8393V33.3682H0.322266V1.52466Z" fill="#043769"/>
</mask>
<g mask="url(#mask0_108_365)">
<path fill-rule="evenodd" clip-rule="evenodd" d="M17.2079 27.243C16.4094 27.243 14.7966 27.1631 12.5955 27.1631C11.3361 27.1631 10.0134 27.1906 9.26591 27.243V26.6994C11.0881 26.6202 11.4422 26.3419 11.4422 24.3688V10.9147C11.4422 8.94164 11.0881 8.664 9.26591 8.58409V8.0419C10.0134 8.09426 11.363 8.12113 12.5431 8.12113C14.2338 8.12113 15.9506 8.06808 16.5926 8.06808C20.3542 8.06808 22.2549 9.82898 22.2549 12.3325C22.2549 14.2526 21.1802 16.1189 18.1786 17.0462V17.0992C22.4244 17.6683 23.6569 19.7874 23.6569 21.9858C23.6569 25.0715 21.2319 27.2423 17.2085 27.2423L17.2079 27.243ZM0.322266 33.3675H31.8393V1.52466H0.322266V33.3689V33.3675Z" fill="#043769"/>
</g>
<path fill-rule="evenodd" clip-rule="evenodd" d="M19.686 12.6238C19.686 9.96184 18.6113 8.58398 15.9245 8.58398C14.2862 8.58398 13.9321 9.04763 13.9321 10.9153V16.5755H15.7406C18.8993 16.5755 19.686 14.9807 19.686 12.6238ZM16.187 17.642H13.9321V24.3694C13.9321 26.2632 14.2862 26.6201 15.9507 26.6201C19.4628 26.6201 20.9709 24.9122 20.9709 21.8665C20.9709 19.1122 19.5944 17.642 16.187 17.642Z" fill="#043769"/>
<path fill-rule="evenodd" clip-rule="evenodd" d="M78.4046 15.7537H76.8517V20.7009H78.4645C80.4597 20.7009 81.6088 19.8866 81.6088 18.2579C81.6088 16.6293 80.4789 15.7537 78.4046 15.7537ZM78.3233 9.90953H76.8517V14.185H78.1828C80.0167 14.185 81.0039 13.3707 81.0039 11.9873C81.0039 10.7039 80.2172 9.90953 78.3233 9.90953ZM78.324 22.3302H74.9985V8.28159H78.3639C81.4269 8.28159 82.8578 9.76761 82.8578 11.926C82.8578 13.3507 82.1117 14.3083 80.8634 14.8374C82.4141 15.3059 83.4627 16.3641 83.4627 18.2173C83.4627 21.0267 81.5275 22.3302 78.324 22.3302ZM86.9893 22.3302V8.28159H94.4848V10.0322H88.8832V14.1037H93.2358L93.5176 15.8557H88.8832V20.5796H94.6867V22.3302H86.9893ZM103.372 10.5006L101.156 16.4254H105.609L103.372 10.5006ZM107.886 22.4728L106.254 18.1153H100.51L98.9394 22.3302H97.0242L102.466 8.22028H104.36L109.72 22.0656L107.886 22.4728ZM118.304 22.5954C114.395 22.5954 111.877 19.6633 111.877 15.3259C111.877 10.9691 114.435 8.01636 118.344 8.01636C119.998 8.01636 121.227 8.44418 122.295 9.1772L122.012 11.1317C121.005 10.358 119.816 9.76761 118.324 9.76761C115.504 9.76761 113.831 11.9253 113.831 15.3066C113.831 18.6858 115.524 20.8235 118.324 20.8235C119.816 20.8235 121.126 20.2331 122.234 19.4181L122.517 21.23C121.449 22.0243 119.897 22.5954 118.304 22.5954ZM131.584 9.76761C128.824 9.76761 127.131 11.9253 127.131 15.3059C127.131 18.6858 128.844 20.8442 131.584 20.8442C134.345 20.8442 136.038 18.6858 136.038 15.3052C136.038 11.9253 134.325 9.76761 131.584 9.76761ZM131.564 22.5954C127.655 22.5954 125.176 19.6627 125.176 15.3259C125.176 10.9691 127.695 8.01636 131.604 8.01636C135.535 8.01636 137.993 10.9484 137.993 15.2852C137.993 19.6227 135.494 22.5947 131.564 22.5947M151.172 22.3302L143.534 11.3969V22.3302H141.782V8.28159H143.474L150.85 18.8084V8.28159H152.603V22.3302H151.172ZM171.323 22.3302V15.8557H164.29V22.3302H162.396V8.28159H164.29V14.1044H171.323V8.28159H173.217V22.3302H171.323Z" fill="#1C70C4"/>
<mask id="mask1_108_365" style="mask-type:luminance" maskUnits="userSpaceOnUse" x="0" y="1" width="207" height="33">
<path d="M0.322266 33.4877H206.399V1.52563H0.322266V33.4877Z" fill="#1C70C4"/>
</mask>
<g mask="url(#mask1_108_365)">
<path fill-rule="evenodd" clip-rule="evenodd" d="M177.69 22.3303H179.585V8.28174H177.69V22.3303ZM184.059 22.3303V8.28174H185.953V20.5791H190.97L191.233 22.3303H184.059ZM194.496 22.3303V8.28174H196.391V20.5791H201.408L201.671 22.3303H194.496Z" fill="#1C70C4"/>
</g>
<mask id="mask2_108_365" style="mask-type:luminance" maskUnits="userSpaceOnUse" x="0" y="1" width="207" height="33">
<path d="M0.322266 33.4877H206.399V1.52563H0.322266V33.4877Z" fill="#043769"/>
</mask>
<g mask="url(#mask2_108_365)">
<path fill-rule="evenodd" clip-rule="evenodd" d="M75.002 32.1439V27.0761H77.6185V27.5308H75.5035V29.2649H77.1755L77.2485 29.7196H75.5042V31.6878H77.6915V32.1439H75.002ZM83.1244 32.1439V29.7492C83.1244 29.3014 82.9418 29.0299 82.4988 29.0299C82.1427 29.0299 81.7865 29.2497 81.409 29.6245V32.1439H80.9357V29.7492C80.9357 29.3014 80.7538 29.0299 80.3101 29.0299C79.9546 29.0299 79.5909 29.2497 79.2203 29.6169V32.1439H78.7408V28.6689H79.1107L79.1913 29.1684C79.562 28.8377 79.9471 28.5952 80.4052 28.5952C80.9357 28.5952 81.2264 28.8157 81.3497 29.1974C81.7286 28.8529 82.1275 28.5952 82.6008 28.5952C83.2842 28.5952 83.6032 28.9921 83.6032 29.6534V32.1432H83.1237L83.1244 32.1439ZM86.3906 29.0299C85.9841 29.0299 85.6714 29.2724 85.3586 29.6541V31.5707C85.6273 31.703 85.8822 31.776 86.2377 31.776C86.8563 31.776 87.3358 31.2986 87.3358 30.3293C87.3358 29.4846 86.9355 29.0299 86.3906 29.0299ZM86.2528 32.1873C85.9104 32.1873 85.6052 32.1218 85.3586 32.0185V33.4067L84.8784 33.4873V28.6696H85.249L85.3296 29.1691C85.5983 28.8605 85.94 28.5959 86.4416 28.5959C87.1897 28.5959 87.8222 29.1471 87.8222 30.3072C87.8222 31.5776 87.0892 32.1873 86.2528 32.1873ZM88.9734 32.1439V26.9583L89.446 26.8708V32.1439H88.9734ZM92.1356 29.0079C91.4535 29.0079 91.0829 29.5873 91.0829 30.4099C91.0829 31.2111 91.4604 31.8056 92.1362 31.8056C92.8341 31.8056 93.2055 31.2331 93.2055 30.4099C93.2055 29.6093 92.8272 29.0079 92.1356 29.0079ZM92.1362 32.2169C91.2565 32.2169 90.5951 31.5556 90.5951 30.4099C90.5951 29.2566 91.2709 28.5959 92.1362 28.5959C93.0305 28.5959 93.6994 29.2573 93.6994 30.4099C93.6994 31.5556 93.016 32.2169 92.1362 32.2169ZM95.9481 32.5765C95.7001 33.2531 95.3949 33.4653 94.8871 33.4653C94.8141 33.4653 94.7486 33.4515 94.6977 33.4439L94.6322 33.0175C94.7046 33.0326 94.8065 33.0471 94.9154 33.0471C95.1992 33.0471 95.3666 32.9224 95.4968 32.5848L95.6567 32.1659L94.3553 28.713L94.821 28.6255L95.8895 31.5852L96.9071 28.6696H97.401L95.9474 32.5765H95.9481ZM98.4137 32.1439H98.8863V28.6696H98.4137V32.1439ZM98.6535 27.8395C98.5609 27.8377 98.4726 27.7998 98.4075 27.7339C98.3424 27.6681 98.3056 27.5794 98.3049 27.4868C98.3049 27.2966 98.4647 27.1347 98.6535 27.1347C98.8429 27.1347 98.9959 27.2966 98.9959 27.4868C98.9968 27.5788 98.9614 27.6675 98.8972 27.7335C98.8331 27.7996 98.7455 27.8377 98.6535 27.8395ZM102.471 32.1439V29.7492C102.471 29.3014 102.268 29.0299 101.831 29.0299C101.468 29.0299 101.097 29.2573 100.719 29.6321V32.1439H100.239V28.6689H100.611L100.69 29.1829C101.068 28.8453 101.461 28.5952 101.926 28.5952C102.609 28.5952 102.951 28.9921 102.951 29.6603V32.1432L102.471 32.1439ZM105.344 28.9562C104.857 28.9562 104.545 29.3159 104.545 29.7933C104.545 30.2411 104.857 30.6014 105.358 30.6014C105.861 30.6014 106.173 30.2487 106.173 29.7788C106.173 29.3159 105.838 28.9562 105.344 28.9562ZM104.305 32.5331C104.305 32.8928 104.755 33.0981 105.433 33.0981C106.13 33.0981 106.58 32.8266 106.58 32.4815C106.58 32.2093 106.363 32.0626 105.752 31.9455L105.417 31.8862C105.243 31.8504 105.127 31.8277 105.004 31.7987C104.53 32.0192 104.305 32.2534 104.305 32.5331ZM107.075 28.6111L107.154 29.0885L106.465 29.1622C106.58 29.3379 106.645 29.5432 106.645 29.7788C106.645 30.5132 106.042 30.9603 105.359 30.9603C105.257 30.9603 105.156 30.9534 105.061 30.9321C104.917 31.012 104.835 31.1009 104.835 31.1815C104.835 31.3206 104.974 31.3723 105.607 31.4901L105.861 31.5418C106.624 31.6809 107.039 31.9083 107.039 32.4222C107.039 33.0905 106.29 33.4653 105.403 33.4653C104.516 33.4653 103.833 33.1642 103.833 32.5628C103.833 32.2093 104.102 31.9083 104.618 31.6368C104.443 31.5335 104.363 31.4095 104.363 31.2772C104.363 31.0933 104.487 30.9534 104.704 30.8143C104.511 30.7199 104.349 30.5722 104.237 30.3888C104.125 30.2053 104.068 29.9937 104.073 29.7788C104.073 29.0444 104.675 28.5959 105.344 28.5959C105.686 28.5959 105.984 28.6993 106.217 28.8901L107.074 28.6111H107.075ZM110.945 32.2025C110.407 32.2025 110.05 31.9889 110.05 31.3502V29.0802H109.52V28.6696H110.05V27.4654L110.524 27.3848V28.6696H111.316L111.381 29.0802H110.524V31.2696C110.524 31.6224 110.661 31.7767 111.032 31.7767C111.142 31.7767 111.272 31.7547 111.352 31.7395L111.425 32.1439C111.323 32.1728 111.149 32.2025 110.945 32.2025ZM114.697 32.1439V29.7492C114.697 29.3014 114.493 29.0299 114.057 29.0299C113.694 29.0299 113.323 29.2573 112.945 29.6321V32.1439H112.465V26.9583L112.945 26.8708V29.1622C113.301 28.8453 113.687 28.5959 114.152 28.5959C114.835 28.5959 115.177 28.9927 115.177 29.6541V32.1439H114.697ZM117.724 28.9859C117.185 28.9859 116.836 29.3889 116.742 30.0578H118.617C118.566 29.433 118.275 28.9859 117.724 28.9859ZM119.111 30.4395H116.72C116.734 31.2917 117.126 31.7987 117.817 31.7987C118.275 31.7987 118.675 31.5928 119.031 31.2841L119.104 31.725C118.74 32.0435 118.272 32.2183 117.788 32.2169C116.887 32.2169 116.24 31.6003 116.24 30.4023C116.24 29.2862 116.88 28.5959 117.724 28.5959C118.661 28.5959 119.111 29.3744 119.111 30.3368V30.4395ZM122.641 27.5308V29.3455H124.253L124.326 29.8002H122.641V32.1439H122.139V27.0761H124.654V27.5308H122.641ZM127.73 32.1439L127.65 31.6293C127.272 31.9668 126.88 32.2169 126.414 32.2169C125.723 32.2169 125.39 31.8132 125.39 31.1525V28.6689H125.869V31.063C125.869 31.5115 126.073 31.7753 126.51 31.7753C126.873 31.7753 127.243 31.5549 127.621 31.1808V28.6689H128.101V32.1432L127.73 32.1439ZM130.465 32.2025C129.928 32.2025 129.572 31.9889 129.572 31.3502V29.0802H129.041V28.6696H129.571V27.4654L130.044 27.3848V28.6696H130.836L130.902 29.0802H130.044V31.2696C130.044 31.6224 130.182 31.7767 130.554 31.7767C130.662 31.7767 130.793 31.7547 130.873 31.7395L130.946 32.1439C130.789 32.1844 130.627 32.2041 130.465 32.2025ZM134.298 32.1439L134.218 31.6293C133.84 31.9668 133.448 32.2169 132.982 32.2169C132.291 32.2169 131.958 31.8132 131.958 31.1525V28.6689H132.437V31.063C132.437 31.5115 132.64 31.7753 133.077 31.7753C133.44 31.7753 133.811 31.5549 134.188 31.1808V28.6689H134.668V32.1432H134.297L134.298 32.1439ZM136.452 29.9621V32.1439H135.972V28.6703H136.328L136.438 29.382C136.693 28.9927 137.091 28.6104 137.658 28.5966L137.738 29.0513C137.171 29.0885 136.684 29.4998 136.452 29.9621ZM139.798 28.9859C139.258 28.9859 138.91 29.3889 138.816 30.0578H140.691C140.64 29.433 140.349 28.9859 139.798 28.9859ZM141.185 30.4395H138.794C138.808 31.2917 139.2 31.7987 139.891 31.7987C140.349 31.7987 140.749 31.5928 141.105 31.2841L141.178 31.725C140.814 32.0435 140.346 32.2183 139.862 32.2169C138.961 32.2169 138.314 31.6003 138.314 30.4023C138.314 29.2862 138.954 28.5959 139.798 28.5959C140.734 28.5959 141.185 29.3744 141.185 30.3368V30.4395Z" fill="#043769"/>
</g>
<mask id="mask3_108_365" style="mask-type:luminance" maskUnits="userSpaceOnUse" x="0" y="1" width="207" height="33">
<path d="M0.322266 33.4877H206.399V1.52563H0.322266V33.4877Z" fill="#1C70C4"/>
</mask>
<g mask="url(#mask3_108_365)">
<path fill-rule="evenodd" clip-rule="evenodd" d="M58.3559 8.64613C56.5461 8.72536 56.1948 9.00162 56.1948 10.9609V24.324C56.1948 26.2833 56.5461 26.5596 58.3559 26.6381V27.1776C57.6133 27.1252 56.3374 27.0983 54.9457 27.0983C53.7215 27.0983 52.394 27.1259 51.5604 27.1776V26.6381C53.3702 26.5596 53.7215 26.2833 53.7215 24.3233V17.6421H45.0528V24.324C45.0528 26.2833 45.4034 26.5596 47.2125 26.6381V27.1776C46.3927 27.1252 45.0528 27.0983 43.8285 27.0983C42.4486 27.0983 41.1603 27.1259 40.4177 27.1776V26.6381C42.2282 26.5596 42.5788 26.2833 42.5788 24.3233V10.9616C42.5788 9.00231 42.2275 8.72605 40.4177 8.64682V8.10808C41.1603 8.16044 42.4486 8.18731 43.8285 8.18731C45.0528 8.18731 46.3934 8.16044 47.2125 8.10808V8.64682C45.4034 8.72605 45.0528 9.00231 45.0528 10.9616V16.5764H53.7208V10.9616C53.7208 9.00231 53.3695 8.72605 51.5597 8.64682V8.10808C52.3933 8.16044 53.7208 8.18731 54.9444 8.18731C56.3374 8.18731 57.6126 8.16044 58.3546 8.10808V8.64682L58.3559 8.64613ZM33.6579 33.3683H65.1742V1.52539H33.6572V33.369L33.6579 33.3683Z" fill="#1C70C4"/>
</g>
<mask id="mask4_108_365" style="mask-type:luminance" maskUnits="userSpaceOnUse" x="0" y="1" width="32" height="33">
<path d="M0.322266 1.52466H31.8393V33.3675H0.322266V1.52466Z" fill="#043769"/>
</mask>
<g mask="url(#mask4_108_365)">
<path fill-rule="evenodd" clip-rule="evenodd" d="M17.2079 27.243C16.4094 27.243 14.7966 27.1631 12.5955 27.1631C11.3361 27.1631 10.0134 27.1906 9.26591 27.243V26.7001C11.0881 26.6202 11.4422 26.3419 11.4422 24.3688V10.9154C11.4422 8.94233 11.0881 8.664 9.26591 8.58409V8.0419C10.0134 8.09426 11.363 8.12113 12.5431 8.12113C14.2338 8.12113 15.9506 8.06808 16.5926 8.06808C20.3542 8.06808 22.2549 9.82967 22.2549 12.3325C22.2549 14.2526 21.1802 16.1189 18.1786 17.0462V17.0992C22.4244 17.6683 23.6569 19.7874 23.6569 21.9858C23.6569 25.0715 21.2312 27.243 17.2079 27.243ZM0.322266 33.3675H31.8393V1.52466H0.322266V33.3689V33.3675Z" fill="#043769"/>
</g>
<mask id="mask5_108_365" style="mask-type:luminance" maskUnits="userSpaceOnUse" x="0" y="1" width="32" height="33">
<path d="M0.322266 1.52466H31.8393V33.3675H0.322266V1.52466Z" fill="#043769"/>
</mask>
<g mask="url(#mask5_108_365)">
<path fill-rule="evenodd" clip-rule="evenodd" d="M19.686 12.6238C19.686 9.96184 18.6113 8.58398 15.9245 8.58398C14.2862 8.58398 13.9321 9.04763 13.9321 10.9153V16.5755H15.7406C18.8993 16.5755 19.686 14.9807 19.686 12.6238ZM16.187 17.642H13.9321V24.3694C13.9321 26.2632 14.2862 26.6201 15.9507 26.6201C19.4628 26.6201 20.9709 24.9122 20.9709 21.8665C20.9709 19.1122 19.5944 17.642 16.187 17.642Z" fill="#043769"/>
</g>
</g>
<defs>
<clipPath id="clip0_108_365">
<rect width="206.678" height="33.0685" fill="white" transform="translate(0.322266 0.912109)"/>
</clipPath>
</defs>
</svg>
