<svg width="61" height="47" viewBox="0 0 61 47" fill="none" xmlns="http://www.w3.org/2000/svg">
<path d="M44.9468 33.347C44.9468 33.1905 44.9468 33.0768 44.9468 32.9631C44.9468 30.3288 44.9447 27.6946 44.9489 25.0604C44.9511 23.5952 45.9014 22.3725 47.3301 22.0893C48.8574 21.7869 50.2239 22.1944 51.0133 23.5781C51.2578 24.0071 51.3822 24.4747 51.3822 24.966C51.3844 28.0657 51.3972 31.1654 51.3779 34.2673C51.3651 36.3438 49.6318 38.0363 47.5531 38.0428C44.9597 38.0492 42.3662 38.0471 39.7727 38.0385C39.5367 38.0385 39.4531 38.105 39.393 38.3324C38.7602 40.7457 38.1167 43.1547 37.471 45.5658C37.2865 46.2544 36.9218 46.825 36.1603 46.8915C34.8432 47.0052 33.7792 46.2801 34.0537 44.8386C34.3712 43.1611 34.7788 41.5029 35.1521 39.8361C35.5017 38.2723 35.8535 36.7063 36.2118 35.1447C36.4627 34.0528 37.353 33.3513 38.4727 33.3492C40.5063 33.3492 42.5399 33.3492 44.5714 33.3492C44.6829 33.347 44.7966 33.347 44.9468 33.347Z" fill="#1F1E1D"/>
<path d="M14.9124 32.9503C15.4015 32.9503 15.8391 32.9503 16.2745 32.9503C17.995 32.9503 19.7154 32.9632 21.4336 32.9461C22.5384 32.9353 23.4265 33.7183 23.6624 34.7544C24.3875 37.9271 25.0932 41.104 25.799 44.2831C25.947 44.9503 25.8955 45.6174 25.3228 46.055C24.4025 46.7565 22.8559 46.8552 22.414 45.2099C21.7661 42.7901 21.1204 40.3704 20.4855 37.9485C20.4275 37.7233 20.3396 37.6525 20.1036 37.6525C17.5938 37.6632 15.0861 37.6546 12.5763 37.6589C10.8516 37.6632 9.57097 36.9253 8.84162 35.3529C8.63354 34.9024 8.51556 34.3683 8.50912 33.8706C8.47909 30.7687 8.48553 27.669 8.49625 24.5671C8.50269 22.9368 9.8005 21.6733 11.4694 21.6111C12.6557 21.5661 13.6639 21.9028 14.3739 22.9046C14.7472 23.4323 14.9124 24.0244 14.9102 24.6744C14.9038 27.3086 14.9081 29.945 14.9081 32.5792C14.9124 32.6908 14.9124 32.8023 14.9124 32.9503Z" fill="#1F1E1D"/>
<path d="M14.4941 16.4155C14.492 18.2217 13.0419 19.6611 11.2271 19.6568C9.42515 19.6525 7.99004 18.196 7.99219 16.379C7.99648 14.5986 9.45732 13.1463 11.2464 13.1484C13.0526 13.1506 14.4963 14.6028 14.4941 16.4155Z" fill="#1F1E1D"/>
<path d="M45.3755 16.8123C45.3691 15.019 46.8128 13.556 48.5954 13.5474C50.4016 13.5388 51.8667 14.9782 51.8839 16.7801C51.901 18.5735 50.4359 20.0515 48.6426 20.0579C46.8321 20.0622 45.3819 18.6228 45.3755 16.8123Z" fill="#1F1E1D"/>
<path d="M15.826 42.6376C10.6541 42.6376 6.71561 41.1682 4.08781 38.2529C-0.882493 32.7399 0.887252 24.2237 0.964478 23.8633C1.14252 23.0396 1.95339 22.5161 2.77712 22.6942C3.59872 22.8722 4.12213 23.6831 3.94623 24.5047C3.92478 24.6098 2.44463 31.8904 6.36381 36.2215C8.85647 38.9758 13.0867 40.0484 18.9429 39.407C19.7795 39.3148 20.5325 39.9197 20.6247 40.7563C20.717 41.5929 20.112 42.3459 19.2754 42.4381C18.0699 42.5711 16.9201 42.6355 15.826 42.6376Z" fill="#25AAE1"/>
<path d="M45.7704 43.3541C50.9423 43.3541 54.8808 41.8847 57.5086 38.9695C62.4789 33.4565 60.7092 24.9402 60.632 24.5798C60.4539 23.7561 59.643 23.2327 58.8193 23.4107C57.9977 23.5888 57.4743 24.3997 57.6502 25.2212C57.6716 25.3264 59.1518 32.607 55.2326 36.938C52.74 39.6924 48.5097 40.765 42.6535 40.1236C41.8169 40.0313 41.0639 40.6363 40.9717 41.4729C40.8795 42.3095 41.4844 43.0624 42.321 43.1547C43.5266 43.2877 44.6764 43.3541 45.7704 43.3541Z" fill="#25AAE1"/>
<path d="M40.8277 25.4614H19.2583C18.0248 25.4614 17.0273 26.4611 17.0273 27.6924C17.0273 28.9237 18.027 29.9233 19.2583 29.9233H27.811V45.4606C27.811 45.8446 28.122 46.1556 28.506 46.1556H31.5779C31.9618 46.1556 32.2729 45.8446 32.2729 45.4606V29.9233H40.8256C42.059 29.9233 43.0565 28.9237 43.0565 27.6924C43.0565 26.4611 42.059 25.4614 40.8277 25.4614Z" fill="#1F1E1D"/>
<path d="M30.7973 0.0307617C25.3422 0.0307617 20.9189 4.45405 20.9189 9.90915C20.9189 11.9063 21.5109 13.764 22.5299 15.3171C20.271 16.8573 19.4087 16.9602 19.4087 16.9602C20.773 17.977 24.0787 18.0221 25.1427 18.0092C26.7451 19.1311 28.695 19.7897 30.7994 19.7897C36.2545 19.7897 40.6778 15.3664 40.6778 9.9113C40.6778 4.4562 36.2545 0.0307617 30.7973 0.0307617ZM26.906 8.97387C26.2903 8.97387 25.7905 8.47405 25.7905 7.8584C25.7905 7.24274 26.2903 6.74292 26.906 6.74292C27.5216 6.74292 28.0214 7.24274 28.0214 7.8584C28.0214 8.47405 27.5216 8.97387 26.906 8.97387ZM30.7973 8.97387C30.1816 8.97387 29.6818 8.47405 29.6818 7.8584C29.6818 7.24274 30.1816 6.74292 30.7973 6.74292C31.4129 6.74292 31.9127 7.24274 31.9127 7.8584C31.9127 8.47405 31.4151 8.97387 30.7973 8.97387ZM34.5019 8.97387C33.8863 8.97387 33.3865 8.47405 33.3865 7.8584C33.3865 7.24274 33.8863 6.74292 34.5019 6.74292C35.1176 6.74292 35.6174 7.24274 35.6174 7.8584C35.6174 8.47405 35.1176 8.97387 34.5019 8.97387Z" fill="#25AAE1"/>
</svg>
