<svg width="170" height="57" viewBox="0 0 170 57" fill="none" xmlns="http://www.w3.org/2000/svg">
<g clip-path="url(#clip0_108_336)">
<path d="M51.6696 2.02598C51.0938 1.45001 50.4102 0.993118 49.6578 0.681395C48.9054 0.369672 48.099 0.209229 47.2846 0.209229C46.4702 0.209229 45.6637 0.369672 44.9114 0.681395C44.159 0.993118 43.4754 1.45001 42.8996 2.02598L33.5371 11.3816C32.3704 12.5437 31.7132 14.1216 31.71 15.7682C31.7067 17.4149 32.3578 18.9953 33.5198 20.162C34.6819 21.3286 36.2598 21.9858 37.9065 21.9891C39.5531 21.9923 41.1336 21.3413 42.3002 20.1792L51.6696 10.7891C52.8307 9.62656 53.4829 8.05065 53.4829 6.40755C53.4829 4.76446 52.8307 3.18855 51.6696 2.02598Z" fill="#5C7D70"/>
<path d="M51.6696 43.1067L42.3002 33.7511C41.1363 32.5891 39.5585 31.9369 37.9138 31.9382C36.2691 31.9395 34.6922 32.5941 33.5302 33.758C32.3681 34.9219 31.716 36.4998 31.7173 38.1445C31.7186 39.7892 32.3732 41.366 33.5371 42.528L42.9134 51.8699C44.0762 53.0305 45.652 53.6821 47.2949 53.6818C48.5184 53.678 49.7135 53.3123 50.7296 52.6307C51.7457 51.9492 52.5375 50.9822 53.0052 49.8516C53.4729 48.721 53.5956 47.4773 53.358 46.2771C53.1203 45.0769 52.5329 43.9738 51.6696 43.1067Z" fill="#4C79AF"/>
<path d="M32.9169 26.9513C32.9136 25.3132 32.2622 23.743 31.105 22.5835L10.5819 2.01909C9.40487 0.941069 7.85747 0.358461 6.26174 0.392527C4.66601 0.426593 3.14489 1.07471 2.01495 2.20198C0.885014 3.32926 0.233311 4.84885 0.19548 6.44449C0.157649 8.04013 0.736604 9.5889 1.81185 10.7685L17.9741 26.9513L1.81185 43.1204C1.19406 43.6863 0.697346 44.3714 0.35169 45.1345C0.006035 45.8977 -0.181391 46.7229 -0.199271 47.5605C-0.217152 48.398 -0.0651159 49.2305 0.247657 50.0077C0.56043 50.7849 1.02745 51.4906 1.62053 52.0823C2.21361 52.674 2.92043 53.1393 3.69834 53.4502C4.47625 53.7612 5.3091 53.9113 6.14662 53.8914C6.98413 53.8715 7.80893 53.6822 8.57123 53.3347C9.33353 52.9873 10.0175 52.4889 10.5819 51.8698L31.105 31.3329C32.2606 30.1752 32.9118 28.6077 32.9169 26.972V26.9513Z" fill="#C25700"/>
<path d="M72.6747 44.3674L75.582 52.1179L78.4961 44.3674H80.1771V53.5853H79.0128V45.9175L76.1331 53.5853H75.0928L72.2131 45.9175V53.5853H71.0488V44.3674H72.6747Z" fill="#386097"/>
<path d="M84.5865 46.7512C86.2445 46.7512 87.0735 47.3506 87.0735 48.5493V52.4004C87.0735 52.6484 87.1906 52.7724 87.4248 52.7724C87.5402 52.7726 87.6546 52.7516 87.7624 52.7104V53.5647C87.5173 53.6894 87.245 53.7509 86.9702 53.7438C86.3501 53.7438 86.0401 53.3994 86.0401 52.7104C85.753 53.0502 85.3922 53.3199 84.9851 53.499C84.5779 53.678 84.1353 53.7618 83.6909 53.7438C83.1103 53.7779 82.5365 53.6045 82.0719 53.2547C81.8736 53.0866 81.7174 52.8744 81.6157 52.6352C81.5141 52.396 81.4697 52.1363 81.4863 51.8768C81.4732 51.6124 81.5182 51.3482 81.6182 51.103C81.7182 50.8578 81.8707 50.6375 82.065 50.4576C82.4508 50.0994 83.3533 49.8376 84.7656 49.6516C85.1064 49.6366 85.4391 49.5423 85.737 49.376C85.8217 49.3124 85.8894 49.2288 85.9339 49.1326C85.9784 49.0364 85.9983 48.9307 85.9919 48.8249C85.9919 48.0946 85.4959 47.7295 84.5038 47.7295C84.0757 47.7015 83.6496 47.8075 83.2844 48.0326C83.1414 48.1488 83.0267 48.296 82.9491 48.4632C82.8715 48.6303 82.833 48.8129 82.8366 48.9971H81.7412C81.8308 47.5022 82.7746 46.7512 84.5865 46.7512ZM82.6713 51.7942C82.671 51.9272 82.7013 52.0585 82.7598 52.1779C82.8183 52.2974 82.9035 52.4018 83.0088 52.4831C83.2922 52.6692 83.6281 52.7586 83.9664 52.738C84.4912 52.7602 85.0082 52.6049 85.4339 52.2971C85.6072 52.184 85.7501 52.0299 85.8498 51.8484C85.9496 51.667 86.0031 51.4638 86.0057 51.2568V50.1407C85.7736 50.2906 85.509 50.3828 85.2341 50.4094L84.1042 50.5748C83.7146 50.6096 83.3413 50.7475 83.0226 50.9743C82.9045 51.0744 82.8113 51.2006 82.7503 51.3429C82.6894 51.4851 82.6623 51.6396 82.6713 51.7942Z" fill="#386097"/>
<path d="M91.9718 46.751C93.5058 46.751 94.2728 47.5479 94.2728 49.1416V53.5852H93.1705V49.0245C93.1829 48.6812 93.0591 48.3469 92.8261 48.0945C92.6916 47.9646 92.5313 47.8644 92.3557 47.8003C92.1801 47.7362 91.993 47.7097 91.8064 47.7224C91.537 47.7048 91.267 47.7468 91.0157 47.8457C90.7644 47.9445 90.538 48.0977 90.3528 48.2942C89.9996 48.7045 89.8171 49.2347 89.843 49.7754V53.5852H88.7407V46.9095H89.7741V47.9704C89.9892 47.5816 90.3094 47.261 90.698 47.0454C91.0866 46.8298 91.528 46.7278 91.9718 46.751Z" fill="#386097"/>
<path d="M99.2607 46.751C99.6834 46.7334 100.105 46.8108 100.493 46.9778C100.882 47.1447 101.228 47.3969 101.507 47.7155C102.082 48.4371 102.376 49.3428 102.333 50.2646C102.375 51.179 102.078 52.0767 101.5 52.786C101.227 53.1037 100.886 53.355 100.501 53.5209C100.117 53.6869 99.6996 53.763 99.2814 53.7437C98.8642 53.7415 98.4517 53.6548 98.0689 53.4887C97.6861 53.3244 97.3619 53.0483 97.1388 52.6965V56.1411H96.0435V46.9095H97.1388V47.812C97.3507 47.4477 97.6644 47.1532 98.0414 46.9647C98.4183 46.7762 98.8422 46.702 99.2607 46.751ZM97.0631 50.2439C97.0282 50.9045 97.2229 51.5568 97.6142 52.0902C97.8002 52.3189 98.0375 52.5004 98.3068 52.6201C98.5762 52.7398 98.8699 52.7943 99.1643 52.7792C99.4485 52.7929 99.7318 52.7373 99.9898 52.6173C100.248 52.4973 100.473 52.3164 100.645 52.0902C101.025 51.5288 101.209 50.8582 101.169 50.1819C101.182 49.5463 100.975 48.9256 100.583 48.4251C100.402 48.2001 100.171 48.0205 99.9074 47.9009C99.6442 47.7813 99.3567 47.7249 99.0678 47.7362C98.7852 47.727 98.5045 47.7846 98.2483 47.9044C97.9921 48.0241 97.7678 48.2025 97.5935 48.4251C97.2073 48.9496 97.0194 49.594 97.0631 50.2439Z" fill="#386097"/>
<path d="M106.439 46.751C106.882 46.7346 107.323 46.8142 107.732 46.9843C108.141 47.1543 108.508 47.4108 108.809 47.7361C109.375 48.4561 109.683 49.3453 109.683 50.2611C109.683 51.1768 109.375 52.0661 108.809 52.786C108.511 53.1147 108.144 53.3734 107.734 53.5438C107.325 53.7141 106.882 53.7917 106.439 53.7711C106.001 53.789 105.565 53.7134 105.159 53.5495C104.752 53.3856 104.386 53.137 104.083 52.8204C103.471 52.1215 103.152 51.2132 103.194 50.2852C103.149 49.3549 103.462 48.4428 104.069 47.7361C104.369 47.4104 104.737 47.1537 105.146 46.9836C105.555 46.8136 105.996 46.7342 106.439 46.751ZM104.372 50.2576C104.342 50.9135 104.548 51.5584 104.951 52.0764C105.286 52.4711 105.764 52.7171 106.281 52.761C106.797 52.8049 107.309 52.643 107.707 52.3106C107.79 52.2402 107.868 52.1642 107.941 52.0833C108.348 51.5644 108.556 50.9166 108.526 50.2576C108.554 49.5967 108.347 48.9475 107.941 48.4251C107.759 48.2026 107.528 48.0247 107.267 47.9053C107.005 47.7859 106.72 47.728 106.432 47.7361C106.149 47.7302 105.868 47.7892 105.612 47.9086C105.355 48.028 105.129 48.2047 104.951 48.4251C104.543 48.9439 104.336 49.5917 104.365 50.2507L104.372 50.2576Z" fill="#386097"/>
<path d="M111.255 46.9095L112.77 52.3727L114.114 46.9095H115.319L116.697 52.3727L118.199 46.9095H119.336L117.214 53.5715H116.05L114.672 48.2667L113.294 53.5715H112.102L109.959 46.8958L111.255 46.9095Z" fill="#386097"/>
<path d="M122.829 46.7511C123.254 46.7335 123.678 46.8174 124.065 46.9959C124.452 47.1743 124.791 47.4423 125.054 47.7776C125.62 48.5503 125.902 49.4943 125.853 50.4506V50.5746H120.852V50.6573C120.838 50.9386 120.88 51.2199 120.976 51.4848C121.072 51.7497 121.219 51.993 121.41 52.2005C121.61 52.3962 121.849 52.5481 122.111 52.6465C122.373 52.745 122.653 52.7878 122.932 52.7723C123.337 52.8262 123.748 52.7205 124.077 52.4776C124.406 52.2347 124.628 51.8735 124.696 51.4702H125.777C125.682 52.1386 125.335 52.7451 124.806 53.165C124.263 53.5655 123.6 53.7696 122.925 53.7437C122.473 53.7719 122.021 53.693 121.606 53.5134C121.191 53.3339 120.824 53.0587 120.535 52.7103C119.983 51.993 119.696 51.1072 119.722 50.2026C119.677 49.3033 119.977 48.421 120.562 47.7362C120.845 47.4163 121.195 47.1623 121.586 46.9921C121.978 46.8219 122.402 46.7396 122.829 46.7511ZM124.689 49.6101C124.68 49.0921 124.47 48.5979 124.103 48.2323C123.923 48.0522 123.708 47.9115 123.471 47.819C123.234 47.7265 122.98 47.6843 122.725 47.6949C122.488 47.6901 122.251 47.7327 122.03 47.8202C121.809 47.9077 121.607 48.0384 121.437 48.2047C121.066 48.5704 120.847 49.0624 120.824 49.5826L124.689 49.6101Z" fill="#386097"/>
<path d="M130.462 46.7512V47.9155C130.128 47.8874 129.793 47.9314 129.478 48.0443C129.163 48.1572 128.876 48.3365 128.636 48.57C128.189 49.1611 127.98 49.8988 128.051 50.6368V53.6198H126.948V46.9097H127.982V48.2875C128.162 47.825 128.479 47.4281 128.89 47.149C129.3 46.8698 129.786 46.7216 130.283 46.7237L130.462 46.7512Z" fill="#386097"/>
<path d="M135.932 44.147C136.891 44.1075 137.836 44.3807 138.626 44.9255C138.981 45.1992 139.277 45.5427 139.495 45.9348C139.713 46.3269 139.849 46.7595 139.893 47.2059H138.667C138.581 46.6093 138.264 46.0702 137.785 45.704C137.244 45.3318 136.595 45.1478 135.939 45.1804C135.502 45.1656 135.067 45.2532 134.67 45.4362C134.273 45.6192 133.924 45.8926 133.652 46.2345C133.025 47.0596 132.711 48.0795 132.763 49.1142C132.734 50.063 133.045 50.9911 133.638 51.7321C133.911 52.0754 134.261 52.35 134.659 52.5342C135.058 52.7184 135.493 52.8071 135.932 52.793C136.713 52.8205 137.473 52.5382 138.047 52.0077C138.323 51.7408 138.541 51.4191 138.686 51.0631C138.831 50.7072 138.899 50.3249 138.888 49.9409V49.7962H135.939V48.7628H139.983V53.5853H139.211L138.888 52.4348C138.553 52.8767 138.112 53.2274 137.606 53.4544C137.08 53.6912 136.509 53.8111 135.932 53.8058C135.34 53.8144 134.754 53.6958 134.212 53.4581C133.67 53.2204 133.185 52.8691 132.791 52.4279C131.955 51.533 131.504 50.3452 131.537 49.1211C131.481 47.8183 131.897 46.5391 132.708 45.518C133.104 45.0571 133.601 44.6937 134.16 44.456C134.719 44.2182 135.325 44.1125 135.932 44.147Z" fill="#386097"/>
<path d="M145.233 46.7512V47.9155C144.898 47.8873 144.562 47.9312 144.246 48.0441C143.929 48.157 143.641 48.3363 143.4 48.57C142.956 49.1626 142.747 49.8991 142.815 50.6367V53.6198H141.719V46.9097H142.753V48.2875C142.934 47.8256 143.251 47.4292 143.662 47.1502C144.072 46.8711 144.557 46.7225 145.054 46.7236L145.233 46.7512Z" fill="#386097"/>
<path d="M148.636 46.751C149.08 46.7341 149.522 46.8134 149.932 46.9835C150.343 47.1535 150.711 47.4103 151.013 47.7362C151.571 48.4596 151.874 49.3474 151.874 50.2611C151.874 51.1747 151.571 52.0626 151.013 52.786C150.714 53.1156 150.346 53.3749 149.935 53.5453C149.524 53.7156 149.081 53.7928 148.636 53.7712C148.199 53.7881 147.762 53.7121 147.356 53.5483C146.95 53.3844 146.583 53.1363 146.28 52.8204C145.667 52.1223 145.351 51.2128 145.398 50.2852C145.351 49.3558 145.662 48.4435 146.266 47.7362C146.567 47.4112 146.935 47.1549 147.344 46.9849C147.753 46.8149 148.194 46.7351 148.636 46.751ZM146.569 50.2576C146.536 50.914 146.741 51.5602 147.148 52.0764C147.483 52.4727 147.961 52.7199 148.478 52.7639C148.994 52.8078 149.507 52.6448 149.904 52.3106C149.99 52.2438 150.069 52.1676 150.138 52.0833C150.55 51.5668 150.758 50.9173 150.724 50.2576C150.757 49.5971 150.552 48.9467 150.145 48.4251C149.963 48.2026 149.732 48.0248 149.471 47.9053C149.209 47.7859 148.924 47.728 148.636 47.7362C148.353 47.7297 148.072 47.7884 147.815 47.9079C147.558 48.0274 147.333 48.2043 147.155 48.4251C146.748 48.9439 146.54 49.5917 146.569 50.2508V50.2576Z" fill="#386097"/>
<path d="M154.12 46.9094V51.4563C154.113 51.6306 154.142 51.8045 154.203 51.9677C154.265 52.1309 154.358 52.2802 154.478 52.4071C154.609 52.5325 154.765 52.6296 154.936 52.6924C155.107 52.7553 155.288 52.7824 155.47 52.7722C155.742 52.7914 156.015 52.7508 156.27 52.6532C156.524 52.5556 156.755 52.4034 156.944 52.2073C157.295 51.7935 157.475 51.2612 157.447 50.7192V46.9094H158.549V53.5851H157.516V52.5586C157.306 52.9456 156.991 53.2651 156.607 53.4798C156.223 53.6945 155.785 53.7955 155.346 53.7711C153.812 53.7711 153.045 52.9789 153.045 51.3943V46.9094H154.12Z" fill="#386097"/>
<path d="M163.276 46.751C163.698 46.7329 164.12 46.8101 164.509 46.9771C164.897 47.1441 165.244 47.3965 165.522 47.7155C166.1 48.4355 166.394 49.3424 166.348 50.2646C166.393 51.1794 166.096 52.0783 165.515 52.786C165.24 53.1065 164.895 53.3595 164.507 53.5256C164.119 53.6916 163.697 53.7662 163.276 53.7436C162.856 53.7423 162.441 53.6555 162.056 53.4887C161.668 53.3303 161.34 53.0529 161.119 52.6965V56.1411H160.017V46.9095H161.119V47.812C161.332 47.4405 161.651 47.141 162.035 46.952C162.42 46.763 162.851 46.693 163.276 46.751ZM161.078 50.2439C161.043 50.9045 161.238 51.5568 161.629 52.0902C161.816 52.3198 162.054 52.502 162.325 52.6217C162.596 52.7415 162.891 52.7954 163.186 52.7792C163.47 52.7917 163.753 52.7356 164.011 52.6157C164.269 52.4958 164.494 52.3156 164.667 52.0902C165.045 51.5282 165.226 50.8575 165.184 50.1819C165.217 49.5396 165.019 48.9067 164.626 48.3976C164.444 48.1733 164.212 47.9944 163.949 47.8748C163.686 47.7553 163.399 47.6984 163.11 47.7087C162.827 47.6995 162.545 47.7571 162.288 47.8767C162.03 47.9964 161.805 48.1748 161.629 48.3976C161.232 48.9286 161.032 49.5815 161.064 50.2439H161.078Z" fill="#386097"/>
<path d="M85.8334 10.2036V12.6011H73.7703V19.4903H85.0205V21.9154H73.7703V29.4247H85.9299V31.8497H70.8906V10.2036H85.8334Z" fill="#386097"/>
<path d="M91.5032 16.1765L95.2303 21.6328H95.2647L99.2054 16.1765H102.299L96.9044 23.3896L102.967 31.8496H99.6601L95.2992 25.3599L90.9314 31.8496H87.8105L93.694 23.6238L88.1826 16.1765H91.5032Z" fill="#386097"/>
<path d="M112.116 15.8114C113.109 15.7658 114.099 15.9454 115.013 16.3367C115.927 16.728 116.741 17.3209 117.393 18.0711C118.75 19.762 119.439 21.8924 119.329 24.0578C119.431 26.2013 118.737 28.3069 117.379 29.9688C116.735 30.7073 115.933 31.2918 115.033 31.6793C114.133 32.0668 113.157 32.2474 112.178 32.2078C111.197 32.2072 110.227 32.008 109.326 31.6222C108.415 31.241 107.643 30.5893 107.114 29.7552H107.052V37.8501H104.476V16.1765H107.052V18.2984H107.114C107.941 16.6404 109.608 15.8114 112.116 15.8114ZM106.963 23.9958C106.88 25.5456 107.335 27.0764 108.251 28.3292C108.69 28.8653 109.25 29.2901 109.884 29.569C110.519 29.8479 111.21 29.9731 111.902 29.9344C112.562 29.9634 113.219 29.8341 113.818 29.5573C114.417 29.2804 114.941 28.864 115.347 28.3429C116.242 27.0306 116.673 25.4571 116.573 23.8718C116.64 22.3665 116.174 20.8859 115.257 19.69C114.829 19.1732 114.287 18.762 113.674 18.4884C113.062 18.2148 112.394 18.0861 111.723 18.1124C111.066 18.0916 110.413 18.2232 109.816 18.4969C109.218 18.7706 108.692 19.179 108.278 19.69C107.355 20.9394 106.9 22.4727 106.99 24.0234L106.963 23.9958Z" fill="#386097"/>
<path d="M128.334 15.8115C129.331 15.7658 130.325 15.9596 131.232 16.3767C132.14 16.7938 132.934 17.4221 133.549 18.2089C134.87 20.024 135.534 22.2354 135.429 24.4782V24.7813H123.718V25.0018C123.684 25.6619 123.781 26.3222 124.005 26.9443C124.228 27.5664 124.573 28.1379 125.02 28.6255C125.489 29.0859 126.05 29.4432 126.666 29.6745C127.281 29.9058 127.939 30.0061 128.595 29.9689C130.841 29.9689 132.191 28.9493 132.66 26.9101H135.209C134.974 28.4762 134.163 29.8984 132.936 30.899C131.656 31.8426 130.095 32.3279 128.506 32.2768C126.039 32.2768 124.17 31.4685 122.898 29.8518C121.602 28.1722 120.928 26.0957 120.99 23.9752C120.908 21.85 121.648 19.7749 123.056 18.1814C123.708 17.423 124.519 16.8175 125.431 16.4079C126.343 15.9983 127.334 15.7947 128.334 15.8115ZM132.701 22.5078C132.655 21.3181 132.164 20.1893 131.323 19.3457C130.905 18.9337 130.407 18.6117 129.86 18.3996C129.312 18.1875 128.727 18.0898 128.141 18.1125C127.581 18.1007 127.025 18.2007 126.504 18.4065C125.984 18.6123 125.51 18.9199 125.109 19.3112C124.251 20.1725 123.743 21.3212 123.683 22.5354L132.701 22.5078Z" fill="#386097"/>
<path d="M145.887 15.8113V18.567C143.944 18.567 142.518 19.0768 141.595 20.0964C140.672 21.116 140.217 22.7074 140.217 24.8707V31.8495H137.641V16.1764H140.066V19.4901H140.128C141.317 17.0513 143.115 15.8297 145.522 15.8251L145.887 15.8113Z" fill="#386097"/>
<path d="M150.551 10.2036V13.3589H147.975V10.2036H150.551ZM150.551 16.1766V31.8497H147.975V16.1766H150.551Z" fill="#386097"/>
<path d="M159.252 15.8114C161.374 15.8114 162.945 16.2201 163.964 17.0377C164.495 17.4933 164.92 18.059 165.211 18.6955C165.501 19.3319 165.649 20.0239 165.645 20.7234H163.069V20.689C163.048 20.3028 162.938 19.9268 162.746 19.5907C162.555 19.2547 162.288 18.9679 161.966 18.7531C161.21 18.2728 160.326 18.0326 159.431 18.0642C158.587 18.0241 157.747 18.2021 156.992 18.5809C156.604 18.7885 156.314 19.1411 156.185 19.5619C156.056 19.9826 156.099 20.4373 156.303 20.8268C156.441 21.0931 156.648 21.317 156.903 21.4743C157.642 21.9085 158.451 22.2115 159.293 22.3699L161.718 22.9142C162.972 23.1423 164.153 23.6667 165.163 24.4436C165.557 24.7935 165.867 25.2267 166.072 25.7118C166.277 26.1968 166.371 26.7215 166.348 27.2475C166.375 27.955 166.226 28.6581 165.913 29.2932C165.6 29.9284 165.134 30.4755 164.557 30.8851C163.111 31.828 161.402 32.2842 159.679 32.1871C157.991 32.2809 156.319 31.8187 154.919 30.8713C154.32 30.3954 153.839 29.7881 153.513 29.0963C153.187 28.4046 153.024 27.6471 153.038 26.8824H155.615C155.612 27.3225 155.716 27.7567 155.916 28.1486C156.116 28.5406 156.407 28.8789 156.765 29.1352C157.677 29.7191 158.75 29.9989 159.831 29.9344C162.352 29.9344 163.62 29.1559 163.62 27.6058C163.624 27.2745 163.54 26.9481 163.377 26.66C163.213 26.3718 162.976 26.1324 162.69 25.9661C161.443 25.3516 160.109 24.9333 158.735 24.7261C157.25 24.5222 155.833 23.9698 154.602 23.114C154.189 22.7677 153.862 22.3308 153.645 21.8373C153.429 21.3438 153.33 20.807 153.355 20.2687C153.34 19.6418 153.477 19.0206 153.754 18.458C154.031 17.8955 154.44 17.4082 154.946 17.0377C156.205 16.1609 157.72 15.7294 159.252 15.8114Z" fill="#386097"/>
<path d="M165.342 11.3817C165.466 11.107 165.639 10.8573 165.852 10.6445C166.068 10.4373 166.32 10.2715 166.596 10.1554C167.165 9.91569 167.805 9.91003 168.378 10.1396C168.951 10.3693 169.41 10.8156 169.655 11.3817C169.779 11.6713 169.842 11.9831 169.841 12.298C169.841 12.6172 169.778 12.9334 169.655 13.228C169.534 13.5045 169.364 13.7566 169.152 13.9721C168.936 14.1793 168.684 14.345 168.408 14.4612C167.826 14.6883 167.179 14.6883 166.596 14.4612C166.311 14.3501 166.049 14.1865 165.825 13.9789C165.611 13.7638 165.438 13.5117 165.315 13.2349C165.192 12.9403 165.129 12.6241 165.129 12.3048C165.136 11.9857 165.208 11.6714 165.342 11.3817ZM165.728 13.0902C165.82 13.3267 165.958 13.5423 166.135 13.724C166.306 13.9035 166.513 14.0464 166.741 14.1443C166.983 14.246 167.243 14.2975 167.506 14.2958C167.764 14.2976 168.019 14.246 168.257 14.1443C168.485 14.0464 168.691 13.9035 168.863 13.724C169.04 13.5423 169.178 13.3267 169.269 13.0902C169.372 12.8389 169.421 12.5692 169.414 12.298C169.421 12.0312 169.372 11.7658 169.269 11.5195C169.084 11.0502 168.719 10.6737 168.257 10.4723C168.018 10.374 167.763 10.3225 167.506 10.3207C167.25 10.3194 166.996 10.3693 166.759 10.4675C166.522 10.5657 166.308 10.7102 166.128 10.8926C165.95 11.0706 165.811 11.2842 165.721 11.5195C165.619 11.7658 165.569 12.0312 165.577 12.298C165.563 12.5678 165.606 12.8374 165.701 13.0902H165.728ZM167.65 10.9477C167.895 10.933 168.138 11.001 168.339 11.1406C168.422 11.2125 168.487 11.3031 168.527 11.405C168.568 11.5068 168.584 11.6169 168.574 11.7262C168.583 11.8256 168.57 11.926 168.534 12.0194C168.498 12.1127 168.441 12.1963 168.367 12.2635C168.221 12.3805 168.043 12.4502 167.857 12.4633L168.636 13.6689H168.181L167.409 12.4977H166.961V13.6689H166.541V10.9132L167.65 10.9477ZM167.409 12.1533H167.678C167.756 12.1448 167.832 12.1263 167.905 12.0982C167.968 12.0686 168.023 12.0236 168.064 11.9673C168.104 11.8884 168.126 11.8011 168.126 11.7124C168.125 11.6356 168.106 11.5601 168.071 11.4919C168.035 11.4404 167.988 11.3979 167.933 11.3679C167.872 11.3392 167.807 11.3206 167.74 11.3128C167.669 11.306 167.597 11.306 167.526 11.3128H166.961V12.1808L167.409 12.1533Z" fill="#386097"/>
</g>
<defs>
<clipPath id="clip0_108_336">
<rect width="169.813" height="55.9477" fill="white" transform="translate(0 0.200439)"/>
</clipPath>
</defs>
</svg>
