<svg width="24" height="24" viewBox="0 0 24 24" fill="none" xmlns="http://www.w3.org/2000/svg">
<path d="M12 24C18.6274 24 24 18.6274 24 12C24 5.37258 18.6274 0 12 0C5.37258 0 0 5.37258 0 12C0 18.6274 5.37258 24 12 24Z" fill="#4467AD"/>
<path d="M12.9248 10.3644C13.1204 10.1511 13.2804 9.91995 13.4937 9.7244C14.1159 9.13773 14.8448 8.8355 15.7159 8.85328C16.1959 8.85328 16.6581 8.88884 17.1026 9.03106C18.1515 9.33328 18.7559 10.0444 19.0404 11.0755C19.2537 11.8399 19.2893 12.6222 19.307 13.4044C19.307 15.0577 19.307 16.7111 19.307 18.3822C19.307 18.5422 19.2715 18.5777 19.1115 18.5777C18.2581 18.5777 17.4048 18.5777 16.5515 18.5777C16.4093 18.5777 16.3737 18.5244 16.3737 18.3822C16.3737 16.7999 16.3737 15.2355 16.3737 13.6533C16.3737 13.2622 16.3559 12.8711 16.2315 12.48C16.0359 11.7688 15.5204 11.4133 14.7737 11.4488C13.7604 11.5022 13.227 11.9999 13.1026 13.0311C13.067 13.2799 13.0493 13.5288 13.0493 13.7777C13.0493 15.3066 13.0493 16.8533 13.0493 18.3822C13.0493 18.5422 13.0137 18.5777 12.8537 18.5777C12.0004 18.5777 11.1293 18.5777 10.2759 18.5777C10.1337 18.5777 10.0981 18.5422 10.0981 18.3999C10.0981 15.3599 10.0981 12.32 10.0981 9.27995C10.0981 9.13773 10.1515 9.10217 10.2937 9.10217C11.1115 9.10217 11.9293 9.10217 12.747 9.10217C12.8893 9.10217 12.9426 9.1555 12.9248 9.29773C12.9248 9.6355 12.9248 9.99106 12.9248 10.3644Z" fill="#FEFEFE"/>
<path d="M8.24896 13.8311C8.24896 15.3422 8.24896 16.8356 8.24896 18.3467C8.24896 18.5067 8.21341 18.56 8.03563 18.56C7.1823 18.5422 6.32896 18.56 5.47563 18.56C5.33341 18.56 5.29785 18.5245 5.29785 18.3822C5.29785 15.3422 5.29785 12.3023 5.29785 9.26225C5.29785 9.13781 5.33341 9.08447 5.45786 9.08447C6.32897 9.08447 7.1823 9.08447 8.05341 9.08447C8.21341 9.08447 8.24896 9.15558 8.24896 9.2978C8.24896 10.7911 8.24896 12.32 8.24896 13.8311Z" fill="#FEFEFE"/>
<path d="M8.48023 6.06218C8.48023 7.0044 7.71578 7.76885 6.77356 7.76885C5.84911 7.76885 5.06689 7.0044 5.06689 6.07996C5.06689 5.13774 5.83133 4.37329 6.77356 4.37329C7.71578 4.37329 8.48023 5.13774 8.48023 6.06218Z" fill="#FEFEFE"/>
</svg>
