<svg width="180" height="177" viewBox="0 0 180 177" fill="none" xmlns="http://www.w3.org/2000/svg">
<path d="M97.8658 163.339C142.971 163.339 179.535 126.774 179.535 81.6695C179.535 36.5647 142.971 0 97.8658 0C52.761 0 16.1963 36.5647 16.1963 81.6695C16.1963 126.774 52.761 163.339 97.8658 163.339Z" fill="url(#paint0_linear_303_1373)"/>
<path d="M90.1488 170.132C95.5251 166.17 93.6189 160.825 93.6189 160.825C97.7015 158.452 95.8954 156.77 95.8954 156.77C104.015 150.187 98.4794 146.49 98.4794 146.49C102.507 139.118 96.8642 139.106 96.8642 139.106C101.174 121.243 83.9996 136.853 83.9996 136.853C36.0973 146.94 109.85 69.1972 109.85 69.1972L109.226 68.5441L108.602 67.8911C108.602 67.8911 27.5782 138.024 39.8385 90.6313C39.8385 90.6313 56.2146 74.1858 38.1745 77.6774C38.1745 77.6774 38.4192 72.0399 30.8714 75.7266C30.8714 75.7266 27.4302 70.0279 20.4841 77.8394C20.4841 77.8394 18.8871 75.9589 16.3296 79.9291C16.3296 79.9291 11.0773 77.7816 6.87476 82.9719C6.87476 82.9719 -1.0566 84.559 0.118842 90.4833L31.8195 146.229L39.0937 152.511L82.3373 176.538C88.2021 177.983 90.1488 170.132 90.1488 170.132Z" fill="#25AAE1"/>
<path d="M56.743 28.8433L56.8174 32.0084L59.4667 33.741L56.4793 34.7899L55.6502 37.8451L53.7292 35.3289L50.5674 35.4835L52.3678 32.8796L51.2427 29.9203L54.2756 30.8271L56.743 28.8433Z" fill="white"/>
<path d="M149.977 113.555L150.051 116.721L152.7 118.453L149.714 119.502L148.884 122.557L146.964 120.04L143.802 120.196L145.601 117.592L144.477 114.633L147.51 115.539L149.977 113.555Z" fill="white"/>
<path d="M115.779 117.803L115.854 120.967L118.503 122.7L115.515 123.749L114.686 126.805L112.765 124.288L109.604 124.443L111.404 121.839L110.279 118.88L113.312 119.787L115.779 117.803Z" fill="white"/>
<path d="M93.1626 40.8044L93.2601 44.964L96.7418 47.2413L92.8162 48.6193L91.7267 52.635L89.2023 49.3268L85.0469 49.531L87.4126 46.1088L85.9347 42.2196L89.9206 43.4124L93.1626 40.8044Z" fill="white"/>
<path d="M137.746 89.427L137.844 93.5865L141.326 95.8639L137.4 97.2418L136.31 101.257L133.786 97.9494L129.631 98.1536L131.997 94.7314L130.519 90.8422L134.505 92.0341L137.746 89.427Z" fill="white"/>
<path d="M105.235 10.1311L105.332 14.2898L108.814 16.5671L104.888 17.9459L103.799 21.9608L101.275 18.6535L97.1191 18.8577L99.4849 15.4355L98.0069 11.5463L101.993 12.7382L105.235 10.1311Z" fill="white"/>
<path d="M59.7508 84.5066L59.8615 86.4599L61.6173 87.5808L59.697 88.1685L59.2176 90.0366L57.9198 88.4462L55.8682 88.4801L56.9866 86.9096L56.1972 85.0629L58.1868 85.682L59.7508 84.5066Z" fill="white"/>
<path d="M164.706 82.21L164.817 84.1633L166.572 85.2841L164.652 85.8719L164.173 87.7392L162.875 86.1496L160.823 86.1835L161.942 84.6129L161.152 82.7654L163.141 83.3854L164.706 82.21Z" fill="white"/>
<path d="M86.9542 83.9222L86.4764 83.8644C82.8236 83.3874 80.2785 83.337 78.8418 83.7131C77.7218 83.9586 76.6926 84.643 75.7561 85.7656C74.5129 87.5362 73.4391 89.6846 72.5364 92.2123C70.6683 97.2134 68.8415 102.572 67.0576 108.288C67.8181 108.311 68.6307 108.284 69.4961 108.21C71.7503 107.938 73.1655 107.716 73.7416 107.544C75.7858 107.102 78.0384 106.466 80.5008 105.634C83.8305 104.517 86.2268 103.606 87.6899 102.9C89.573 102.006 90.8765 101.095 91.5998 100.167C91.9933 99.6668 92.3049 99.1237 92.5364 98.5368C92.953 97.4002 93.2679 96.2718 93.4812 95.1526C93.8482 92.843 93.8846 91.2444 93.5886 90.3574C93.1208 88.8893 92.4595 87.8015 91.6064 87.0956C90.7129 86.2343 89.1621 85.177 86.9542 83.9222Z" fill="#728EC8"/>
<path d="M90.9188 87.697L90.7989 88.4815C90.4501 90.8357 89.9293 92.6484 89.2358 93.9206C88.9754 94.4306 88.663 94.9373 88.2993 95.4399L87.7066 96.1905C87.2817 96.6889 86.7899 97.1824 86.2327 97.6709C85.6739 98.1595 85.0655 98.6397 84.4076 99.1126C84.1116 99.363 83.061 100.048 81.2557 101.168C80.8854 101.406 79.7843 102.031 77.9517 103.043C74.7643 104.738 72.6531 105.874 71.6173 106.452C70.5866 107.015 69.0251 107.906 66.9346 109.124C74.3129 107.689 79.8637 106.371 83.5851 105.172C86.8229 104.123 89.2094 102.879 90.7436 101.444C91.1345 101.079 91.4801 100.696 91.7801 100.295L92.1976 99.6788C92.4538 99.2581 92.6696 98.8166 92.8432 98.3529C93.1722 97.6635 93.3912 96.4228 93.5003 94.6315C93.5086 92.5418 93.2598 90.82 92.7547 89.4668C92.3522 88.4195 91.7396 87.8293 90.9188 87.697Z" fill="#3F4F6B"/>
<path d="M88.6925 85.6056L87.6857 85.9503C84.6594 86.977 82.4168 87.9342 80.9578 88.8212C80.3668 89.1659 79.7981 89.5428 79.2534 89.952L78.4565 90.5967C77.9382 91.0456 77.4497 91.5366 76.9909 92.069C76.0783 93.1493 75.2641 94.3223 74.5491 95.5878C74.1895 96.2136 73.849 96.8418 73.5274 97.4733L70.9806 102.65C70.8459 102.93 70.4772 103.585 69.8754 104.616C69.3869 105.475 68.4884 106.776 67.1807 108.519C67.546 106.885 67.9866 105.219 68.5024 103.519C68.7942 102.555 69.167 101.404 69.62 100.066C71.5328 94.5496 72.5925 91.4424 72.8008 90.7447L73.2348 89.3064L73.6597 87.4506C73.9556 87.3134 75.3121 86.4695 77.7291 84.9196C78.8665 84.2384 79.5534 83.8433 79.7898 83.7334C81.2124 82.9621 82.435 82.5298 83.4567 82.4364C84.6454 82.3223 85.9043 82.6059 87.2335 83.2886L88.6925 85.6056Z" fill="white" fill-opacity="0.9098"/>
<path d="M173.178 7.60181L171.233 7.92915C166.07 8.80288 162.805 9.49723 161.437 10.0114C159.911 10.4214 157.91 11.5381 155.436 13.3617C152.513 15.4513 148.885 18.5561 144.551 22.676C140.96 26.056 133.913 33.1715 123.411 44.0225L115.426 48.7036L138.213 25.1773C140.354 22.9471 141.929 21.1261 142.938 19.715C144.503 17.4989 145.817 14.8917 146.882 11.8952C144.53 12.1275 142.434 12.7285 140.593 13.6989C139.169 14.4255 137.172 15.9845 134.605 18.3776C133.669 19.2554 132.728 20.1548 131.78 21.0773L121.502 31.4199C114.368 38.6354 109.739 43.4289 107.618 45.8022C105.382 48.2192 103.312 50.7288 101.407 53.331L90.5173 53.6823L84.1019 57.817L85.9445 62.0898L79.0488 71.8141L88.354 77.6177L84.8616 81.1532L90.9984 87.8653L173.178 7.60181Z" fill="#FCB918"/>
<path d="M172.934 7.34399L172.518 9.27249C171.409 14.3901 170.568 17.6205 169.992 18.9637C169.513 20.4698 168.306 22.4165 166.371 24.8046C164.151 27.6291 160.883 31.1116 156.57 35.2538C153.03 38.6876 145.601 45.4022 134.282 55.3984L129.242 63.1603L153.782 41.47C156.107 39.4332 157.998 37.9428 159.453 36.9988C161.739 35.5365 164.403 34.3421 167.445 33.4154C167.105 35.7547 166.409 37.8221 165.357 39.6167C164.566 41.0071 162.917 42.9298 160.41 45.3848C159.491 46.2792 158.549 47.1786 157.584 48.0829L146.784 57.8783C139.251 64.6763 134.251 69.0814 131.784 71.0925C129.268 73.2161 126.666 75.1702 123.98 76.954L123.133 87.8166L118.709 94.0369L114.525 92.0009L104.496 98.446L99.1226 88.8862L95.431 92.2142L89.0049 85.7773L172.934 7.34399Z" fill="#FCB918"/>
<path d="M145.788 13.5205L107.091 53.2666L110.496 52.9542C118 46.0371 125.432 38.8356 132.791 31.3506C135.028 29.0675 137.056 26.9265 138.876 24.927C140.679 22.9406 142.069 21.2783 143.045 19.9408C144.783 17.7197 145.697 15.5796 145.788 13.5205Z" fill="#E49925"/>
<path d="M155.304 25.6578L147.759 19.941C150.544 17.2958 152.742 15.359 154.356 14.1299C155.979 12.9338 156.962 12.2526 157.308 12.0865C157.977 11.679 158.656 11.3095 159.346 10.9788C160.037 10.6506 160.738 10.3605 161.451 10.1092C161.796 9.94554 162.884 9.63804 164.713 9.18671C166.551 8.76844 169.185 8.39812 172.613 8.07739L155.304 25.6578Z" fill="#728EC8"/>
<path d="M154.08 24.3777L159.447 32.176C162.216 29.5152 164.252 27.4065 165.554 25.8499C166.822 24.2835 167.547 23.3312 167.729 22.9948C168.167 22.3451 168.567 21.6838 168.929 21.0093C169.288 20.3339 169.61 19.647 169.893 18.9469C170.072 18.6088 170.429 17.5367 170.964 15.7305C171.465 13.9128 171.955 11.299 172.433 7.88843L154.08 24.3777Z" fill="#728EC8"/>
<path d="M98.8435 66.9117L93.316 61.1353L87.7884 55.3589C86.4303 56.1343 85.073 56.9088 83.7148 57.6842C86.9378 62.3322 90.16 66.9794 93.3829 71.6275C95.2031 70.0553 97.0233 68.4839 98.8435 66.9117Z" fill="#728EC8"/>
<path d="M110.296 78.8972L115.814 84.6827L121.333 90.4682C120.497 91.7891 119.661 93.11 118.825 94.431C114.329 90.9997 109.833 87.5684 105.337 84.138C106.989 82.3913 108.643 80.6447 110.296 78.8972Z" fill="#728EC8"/>
<path d="M97.6843 67.8208L92.265 62.037L86.8457 56.2532C87.2921 55.8779 87.7376 55.5035 88.184 55.1282C91.7533 58.8942 95.3218 62.6603 98.8911 66.4255C98.4894 66.8917 98.0868 67.3563 97.6843 67.8208Z" fill="white"/>
<path d="M120.431 91.7351L114.994 85.9603L109.558 80.1856C109.809 79.9252 110.061 79.6657 110.312 79.4053C113.685 83.516 117.057 87.6251 120.431 91.7351Z" fill="white"/>
<path d="M106.868 82.1121L112.833 87.6289L118.798 93.1458C119.235 92.6704 119.672 92.1951 120.11 91.7207C116.091 88.1861 112.071 84.6523 108.052 81.1177C107.658 81.45 107.262 81.7814 106.868 82.1121Z" fill="white"/>
<path d="M95.4762 70.1899L90.2371 63.9795L84.998 57.7691C85.4924 57.3542 85.9875 56.9392 86.4818 56.5234C89.8288 60.6995 93.1766 64.8756 96.5235 69.0516C96.1739 69.431 95.825 69.8104 95.4762 70.1899Z" fill="white"/>
<path d="M130.046 41.8694C129.774 45.1742 128.477 48.0996 126.155 50.6456C125.669 51.1779 124.944 51.8789 123.979 52.7501L119.769 56.3426C117.043 58.8414 115.399 60.336 114.838 60.8253L111.065 63.9582C109.169 65.6999 108.122 66.6422 107.921 66.7844C106.958 67.5746 106.257 68.078 105.818 68.293C105.342 68.5294 104.763 68.1475 104.082 67.1464C103.93 66.653 104.114 66.1049 104.632 65.5023C104.842 65.2452 105.26 64.8658 105.886 64.3641C106.778 63.6953 107.891 62.791 109.227 61.6494C110.07 61.0047 110.575 60.612 110.739 60.4715C111.028 60.2351 111.309 59.9937 111.583 59.7482L113.71 57.6519C115.014 56.4583 115.845 55.6879 116.205 55.3391C116.797 54.7001 119.066 52.5005 123.009 48.7386L125.503 45.9562C125.658 45.7826 125.808 45.6015 125.955 45.4114C126.185 45.1494 126.599 44.4501 127.196 43.3143C127.328 43.1068 127.475 42.9027 127.638 42.701L130.046 41.8694Z" fill="white"/>
<path d="M129.849 41.7607C130.936 41.6383 131.92 41.2498 132.804 40.5968C132.948 40.5042 133.479 40.0711 134.398 39.2965C135.604 38.1905 136.758 37.1903 137.862 36.2967C138.124 36.0818 138.336 35.9124 138.499 35.7867L141.812 33.2515C142.131 32.9911 142.32 32.8076 142.377 32.6993C142.702 32.3257 142.135 32.1942 140.678 32.3025C139.681 32.4712 138.759 32.8373 137.91 33.4028C137.129 33.9161 136.333 34.5732 135.523 35.3734C134.317 36.5546 133.628 37.2416 133.453 37.4325C133.319 37.559 132.376 38.5765 130.628 40.486L129.849 41.7607Z" fill="white"/>
<path d="M150.616 29.0305C149.574 29.2463 148.636 29.6315 147.801 30.1878C147.476 30.3936 147.111 30.6648 146.704 31.0012C145.573 31.9477 144.491 32.866 143.457 33.7571C143.363 33.8373 143.267 33.8563 143.169 33.8133C142.734 33.6034 142.41 33.1967 142.196 32.5949C142.137 32.3668 142.33 32.0262 142.776 31.574C143.934 30.4292 145.879 29.3339 148.609 28.2891L150.616 29.0305Z" fill="white"/>
<path d="M150.525 21.989C148.072 23.5662 146.352 24.7813 145.365 25.6327C144.605 26.2502 143.865 26.8834 143.144 27.5315C142.728 27.8902 142.017 28.5622 141.012 29.5484C140.766 29.779 140.491 30.0295 140.187 30.2998C138.488 31.6943 137.544 32.4862 137.356 32.6771C137.041 32.94 136.261 33.6823 135.018 34.904C134.554 35.3149 134.052 35.7298 133.513 36.1481C133.304 36.3275 133.152 36.4647 133.056 36.5614L130.702 39.2462L128.262 41.617L127.053 42.9313C126.629 43.2892 126.075 43.3446 125.388 43.0966C125.181 42.7577 125.429 42.1311 126.132 41.2161C128.46 38.7974 129.914 37.245 130.494 36.5573C132.373 34.8131 133.412 33.8203 133.61 33.579C133.718 33.5161 134.464 32.5961 135.849 30.8189C136.167 30.4403 136.484 30.0824 136.803 29.7443C137.257 29.269 137.609 28.9119 137.858 28.673C139.138 27.4876 140.226 26.4535 141.122 25.5724C141.465 25.2343 142.343 24.4763 143.755 23.2992C144.035 23.0537 144.257 22.8503 144.423 22.69C144.617 22.5015 144.875 22.2403 145.198 21.9047C146.116 20.8607 146.592 20.3374 146.628 20.3366C147.054 19.944 147.43 19.6588 147.757 19.4802L150.525 21.989Z" fill="white"/>
<path d="M87.5672 64.1076C86.5364 65.8121 85.8346 66.904 85.4618 67.3826C84.3467 68.8747 83.3415 70.1708 82.4463 71.2694C82.2727 71.4909 81.8354 72.0786 81.1353 73.0334C80.9906 73.2979 80.617 73.2111 80.0135 72.7738C79.4721 72.2142 79.2043 71.7687 79.2101 71.4355C79.2043 70.9594 79.4357 70.2179 79.9019 69.2136C80.1136 68.7755 80.3624 68.3779 80.6492 68.0191C81.537 66.9875 82.7786 65.3731 84.3739 63.1743L85.2625 62.1907L87.5672 64.1076Z" fill="white"/>
<path d="M126.633 45.1596C124.79 45.544 123.354 45.9697 122.328 46.4375C121.179 47.6791 120.384 48.4718 119.94 48.8165C116.275 51.8725 113.848 53.8068 112.659 54.6202C111.041 56.1271 110.227 56.8554 110.217 56.8049C109.829 56.3825 105.478 56.123 97.1629 56.0254L92.4421 56.0221L90.145 56.5842C90.0755 56.6743 89.4539 56.1552 88.2793 55.0261C88.6976 54.3185 89.6647 53.8035 91.1799 53.4795C92.114 53.8721 98.2565 53.844 109.608 53.3952C110.576 53.0984 111.515 52.6173 112.425 51.9519C113.088 51.4791 114.388 50.3135 116.326 48.4553C117.445 47.6386 118.603 46.874 119.8 46.1615L124.376 43.7064C124.95 43.4328 125.665 43.2047 126.521 43.022L126.633 45.1596Z" fill="white"/>
<path d="M106.21 68.419C104.647 68.5331 102.786 68.877 100.628 69.4507C100.404 69.6209 100.094 69.9061 99.6963 70.307C98.1538 71.9355 96.718 73.4101 95.388 74.7302C93.3363 76.7364 92.1146 77.9218 91.7236 78.2863L86.9275 82.6666C86.568 82.9989 86.3638 83.0857 86.3159 82.9278C85.9315 81.3713 85.9621 80.2983 86.4076 79.7089C86.8556 78.8294 88.1071 77.4134 90.1637 75.4593C91.3946 74.3153 92.9767 72.9208 94.9102 71.2775C95.7856 70.4963 96.9197 69.4077 98.3125 68.0132C98.854 67.5329 99.1871 67.2585 99.3136 67.189C99.5888 66.9204 100.677 66.5782 102.58 66.1649C103.285 65.9756 104.062 65.8681 104.908 65.8408L106.21 68.419Z" fill="white"/>
<path d="M112.571 90.2095C111.387 90.9534 110.16 91.6941 108.888 92.4322C108.506 92.6571 107.037 93.4424 104.479 94.7873C103.898 95.1262 103.342 95.4849 102.809 95.8643C102.96 96.8951 103.243 97.6779 103.66 98.2119C103.83 98.5806 104.726 98.3814 106.345 97.6143C107.009 97.2588 108.815 96.0809 111.759 94.0797C111.893 93.9863 112.47 93.6432 113.49 93.053C113.655 92.9613 113.989 92.6414 114.495 92.0917L112.571 90.2095Z" fill="#E49925"/>
<path d="M123.224 83.5581C122.62 84.4756 122.146 85.1518 121.803 85.5858C121.166 86.4066 120.528 87.1464 119.888 87.8061C119.797 87.9202 119.67 88.083 119.511 88.2938C119.478 88.3368 119.464 88.3731 119.466 88.4012C120.112 89.58 120.657 90.1669 121.1 90.1603C121.182 90.138 121.28 90.0627 121.392 89.9363C121.677 89.5519 122.108 89.0278 122.682 88.364C122.869 88.1342 123.116 87.7433 123.426 87.1919L123.224 83.5581Z" fill="#E49925"/>
<path d="M133.179 52.946L131.768 56.2764L121.498 68.5822L121.244 87.2827L123.46 86.1048L124.75 69.2435L133.472 56.259L136.05 51.5134L133.179 52.946Z" fill="#E49925"/>
<path d="M131.6 53.8315L128.481 58.9723L113.701 74.9706L112.145 80.351L110.529 78.9697L111.258 76.4138L111.4 73.4033L127.208 57.5778L131.6 53.8315Z" fill="white"/>
<path d="M106.609 85.5705L103.511 88.3463L100.414 91.1221C100.159 90.2996 99.9048 89.4779 99.6494 88.6554C101.432 87.2395 103.215 85.8235 104.998 84.4075C105.536 84.796 106.072 85.1837 106.609 85.5705Z" fill="white"/>
<path d="M150.309 22.1309L147.975 19.8932C150.644 17.3993 153.086 15.2956 155.302 13.5812C156.929 12.3123 158.66 11.1989 160.495 10.24C161.708 9.64072 162.897 9.16293 164.061 8.80832C165.225 8.4537 166.301 8.19001 167.289 8.01725C168.668 7.76926 169.916 7.63783 171.035 7.62378C171.791 7.62874 172.307 7.74777 172.581 7.98087C167.621 9.66882 163.903 11.3345 161.429 12.9786C160.811 13.3721 160.192 13.7928 159.574 14.2392C159.265 14.4367 158.337 15.1542 156.793 16.3925C155.248 17.6523 153.086 19.5651 150.309 22.1309Z" fill="white"/>
<path d="M172.569 7.82373L172.262 8.8165C171.352 11.7923 170.433 14.1796 169.506 15.9799C168.468 18.1151 166.963 20.4122 164.994 22.8714C162.711 25.7654 159.044 29.6265 153.995 34.4531C150.825 37.5389 144.851 42.9276 136.072 50.6201L134.057 55.3508C142.674 48.0633 149.485 42.1034 154.488 37.4694C158.953 33.3521 162.664 29.5356 165.622 26.02C167.082 24.2668 168.299 22.6019 169.273 21.0256C169.596 20.6032 170.174 19.474 171.007 17.6373C172.043 15.422 172.564 12.1502 172.569 7.82373Z" fill="black" fill-opacity="0.3137"/>
<path d="M166.618 36.5532L124.244 74.6188L124.576 77.3682C135.534 68.2308 144.652 60.4052 151.931 53.8915C154.306 51.7596 156.455 49.7658 158.377 47.9101C160.284 46.0659 161.785 44.497 162.879 43.2033C163.959 41.9204 164.748 40.8359 165.247 39.949C165.949 38.6495 166.406 37.5179 166.618 36.5532Z" fill="#E49925"/>
<path d="M143.391 12.2863L103.992 53.2591L100.975 53.322C113.733 39.5861 121.669 31.1183 124.784 27.9201C128.226 24.3235 131.143 21.3642 133.535 19.0423L135.187 17.4717L136.623 16.164L137.861 15.0952C139.355 13.861 140.481 13.0733 141.239 12.7319C141.879 12.388 142.596 12.2392 143.391 12.2863Z" fill="white"/>
<path d="M163.393 35.2881L124.321 71.5467L124.419 68.9272L126.399 66.1084L149.826 45.3819C150.945 44.2147 152.066 43.0864 153.188 41.9969C153.936 41.2753 154.686 40.6007 155.438 39.9725C157.314 38.3515 159.966 36.79 163.393 35.2881Z" fill="white"/>
<path d="M150.419 29.2047L150.213 29.5304C149.318 30.9538 148.554 32.0979 147.923 32.9617C147.362 33.7387 146.508 34.7852 145.36 36.1004L146.79 37.5833C148.245 35.463 149.274 33.9247 149.875 32.9683C150.908 31.3267 151.428 30.3074 151.435 29.9098C151.472 29.6313 151.419 29.4445 151.277 29.3486C151.113 29.2337 150.828 29.1857 150.419 29.2047Z" fill="#E49925"/>
<path d="M145.847 37.4146L145.514 37.9113C144.068 40.0895 142.855 41.7906 141.874 43.0149C141 44.1234 139.709 45.5096 138 47.1719C137.087 49.2914 136.754 50.3833 137 50.447C137.143 50.4718 137.38 50.3197 137.708 49.9915L138.123 49.5633C138.432 49.2285 138.796 48.8119 139.213 48.3126C140.676 46.566 143.208 43.3356 146.811 38.6198L145.847 37.4146Z" fill="#E49925"/>
<path d="M136.566 49.0398L135.955 49.2721C134.771 49.6829 133.413 50.3384 131.879 51.2402C130.502 52.1297 129.625 52.7339 129.248 53.053C128.6 53.5457 127.898 54.1136 127.142 54.7567C126.383 55.4039 125.571 56.1264 124.705 56.924C124.323 57.2497 122.928 58.5806 120.518 60.9174C118.061 63.3187 114.321 67.1013 109.3 72.2644L108.329 77.9614L93.418 90.1672L95.0414 91.6534L110.123 79.5716L111.385 73.8589C115.199 69.6027 117.719 66.8418 118.944 65.577C120.805 63.6047 122.612 61.806 124.361 60.1817C125.889 58.7443 127.722 57.1762 129.862 55.4775C130.124 55.2626 130.735 54.8054 131.695 54.1069C132.509 53.5283 133.586 52.8323 134.922 52.0173C135.25 51.7718 135.431 51.6205 135.466 51.5634C135.902 51.1518 136.268 50.3103 136.566 49.0398Z" fill="#E49925"/>
<path d="M125.727 45.5366L123.813 46.264L103.632 63.8197L96.9668 64.4066L99.0623 66.8757L104.566 66.2359C114.342 57.5382 120.282 52.1396 122.385 50.04C123.428 49.0473 124.357 48.047 125.17 47.0386C125.672 46.3831 125.857 45.8821 125.727 45.5366Z" fill="#E49925"/>
<path d="M91.8189 70.5577L86.3418 76.5977C86.6791 77.145 86.9527 77.4731 87.1635 77.5806C87.4238 77.7649 87.7652 77.7939 88.1893 77.6666C88.3331 77.6203 88.4893 77.5492 88.658 77.4549L88.9217 77.2929L89.3176 77.0061C89.8855 76.5581 90.4831 75.9943 91.1114 75.3173C91.4189 74.9858 91.714 74.6486 91.9975 74.3055L92.4042 73.7972C92.6662 73.4591 92.896 73.1384 93.0944 72.8333C93.4986 72.2076 93.7111 71.7422 93.7326 71.4388C93.7565 71.0652 93.6127 70.8255 93.3002 70.7197C93.0109 70.6056 92.5174 70.5511 91.8189 70.5577Z" fill="#E49925"/>
<path d="M125.538 42.603L123.61 43.2685L123.597 43.2734L125.538 42.603Z" fill="black"/>
<path d="M173.542 6.97803C173.399 6.82841 173.186 6.74823 172.967 6.78212C169.539 7.31363 166.065 7.85093 162.677 8.81146C159.196 9.79761 155.856 11.2343 147.232 19.1731C141.131 24.7899 132.347 33.6967 122.792 43.5516L123.505 43.3053L122.79 43.5516C121.395 44.9916 119.982 46.4522 118.56 47.9244L121.344 45.9637L122.805 44.9345L123.515 44.6899C124.195 43.9897 124.871 43.2937 125.542 42.6026L123.614 43.2664L125.541 42.6018C134.385 33.5008 142.431 25.376 148.122 20.1377C156.668 12.27 159.83 10.9821 163.035 10.0737C166.047 9.2198 169.139 8.70648 172.275 8.21712C171.644 11.3277 170.99 14.3936 170 17.3636C168.947 20.5229 167.515 23.6236 159.266 31.8021C153.773 37.2487 145.29 44.9155 135.795 53.3354C135.075 53.9744 134.349 54.6175 133.618 55.2639L133.342 55.9624L132.247 57.3759L130.163 60.0674C131.699 58.7134 133.222 57.3685 134.723 56.0401L135.263 54.6803L134.724 56.0393C145.004 46.9432 154.302 38.5746 160.191 32.7353C168.514 24.4824 170.101 21.2115 171.246 17.7794C172.359 14.4391 173.055 10.9929 173.742 7.59303C173.786 7.37398 173.716 7.15906 173.572 7.00944C173.567 7.00448 173.562 6.99869 173.557 6.99373C173.552 6.98877 173.547 6.98299 173.542 6.97803Z" fill="black"/>
<path d="M98.3145 78.6963C98.3334 78.7244 98.3541 78.7508 98.378 78.7755C98.3788 78.7764 98.3797 78.778 98.3805 78.7788C98.3813 78.7797 98.3813 78.7797 98.3822 78.7805L98.383 78.7813C98.3846 78.7821 98.3855 78.7838 98.3871 78.7854C98.3912 78.7896 98.3954 78.7937 98.3987 78.797C98.4028 78.8011 98.4061 78.8053 98.4094 78.8094C98.411 78.811 98.4127 78.8127 98.4135 78.8143C98.4152 78.816 98.4168 78.8176 98.4185 78.8193C98.4424 78.8441 98.4672 78.8655 98.4936 78.8853L98.4928 78.8845C98.4664 78.8606 98.4416 78.8375 98.416 78.8143C98.4102 78.8086 98.4044 78.8036 98.3987 78.7978C98.3937 78.7921 98.3879 78.7854 98.383 78.7797C98.3607 78.7516 98.3376 78.7244 98.3145 78.6963Z" fill="black"/>
<path d="M98.4974 78.8865C98.471 78.8626 98.4445 78.8386 98.4189 78.8147C98.4445 78.8378 98.4701 78.8609 98.4957 78.8849C98.4966 78.8865 98.4974 78.8873 98.4974 78.8865Z" fill="black"/>
<path d="M133.091 40.4026C132.905 40.2075 132.618 40.148 132.371 40.248L130.15 41.0134L129.135 41.3631L127.946 41.7731L128.371 41.626L127.891 41.7913L127.461 41.9392L127.465 41.9384L127.462 41.9392L127.457 41.9409L127.456 41.9417L127.454 41.9426L127.452 41.9434L127.451 41.9442L127.02 42.093L126.839 42.155L126.84 42.1558L125.543 42.6022L122.865 43.5255L122.792 43.5511L122.29 43.7239C122.231 43.7437 122.177 43.7719 122.126 43.8074L109.239 52.882L90.7067 52.7497C90.581 52.7489 90.4587 52.7836 90.3529 52.8506L87.1134 54.8873L83.1961 57.3507C83.0473 57.4441 82.9423 57.5928 82.9043 57.7648C82.8662 57.9359 82.8985 58.1161 82.9927 58.2608L82.9944 58.2641C84.3632 60.3785 85.7379 62.5029 87.3424 64.7861C87.9946 65.7143 88.6848 66.6691 89.4287 67.6602C90.4777 69.058 91.6317 70.5285 92.8476 72.0404L93.7643 71.0849C92.5963 69.63 91.4887 68.2173 90.4794 66.8724C89.7445 65.8929 89.0625 64.9497 88.417 64.0314C86.9687 61.9706 85.7081 60.038 84.4583 58.1087L88.0218 55.8669L89.1527 55.156L89.8495 54.7179L90.8894 54.064L109.439 54.1963C109.577 54.1971 109.71 54.1558 109.822 54.0764L118.559 47.9239L118.597 47.8967L118.782 47.7669L119.781 47.0634L119.941 46.951L119.925 46.9626L120.145 46.808L122.803 44.9357L123.513 44.691L125.916 43.8628L126.105 43.7975L126.288 43.7338L126.355 43.7107L126.406 43.6933L126.407 43.6925L126.418 43.6892L126.436 43.6826L126.44 43.6817L126.441 43.6809L126.457 43.6751L126.459 43.6743L126.462 43.6735L126.459 43.6743L126.479 43.6677L126.461 43.6735L126.478 43.6677L126.48 43.6669L126.482 43.666L126.503 43.6586L126.496 43.6611L126.517 43.6536L126.606 43.6231L126.698 43.5916L126.7 43.5908L126.702 43.59L126.699 43.5908H126.7L126.702 43.59H126.702L126.725 43.5826L126.713 43.5867L126.702 43.59L126.782 43.5627L126.786 43.5611L126.788 43.5602H126.788H126.789H126.79H126.791L126.793 43.5594L126.795 43.5586H126.796L126.804 43.5561L126.798 43.5586L126.807 43.5553L126.808 43.5545L126.811 43.5536L126.809 43.5545L126.812 43.5536L126.814 43.5528H126.815L126.812 43.5536L126.816 43.5528H126.817H126.817L126.821 43.552L126.826 43.5503L126.831 43.5478L126.827 43.5495L126.829 43.5487L126.831 43.5478L126.835 43.547L126.838 43.5462L126.836 43.547L126.841 43.5454L126.845 43.5445L126.847 43.5437L126.854 43.5412L126.867 43.5363L126.86 43.5387L126.872 43.5346L126.889 43.5288L126.888 43.5296L126.89 43.5288L126.892 43.528L126.893 43.5272L126.895 43.5263L126.899 43.5247H126.9L126.902 43.5239L126.908 43.5214L126.916 43.5189L126.919 43.5181L126.926 43.5156L126.926 43.5148L126.925 43.5156L126.927 43.5148L126.929 43.5139L126.931 43.5131L126.93 43.5139L126.934 43.5123L126.936 43.5115L126.938 43.5106L126.943 43.509H126.944L126.945 43.5082L126.952 43.5057L126.946 43.5082L126.952 43.5065L126.955 43.5057L126.956 43.5049H126.955L126.963 43.5024L127.009 43.4867H127.01L127.012 43.4858L127.016 43.4842L127.017 43.4834L127.019 43.4825L127.024 43.4809L127.026 43.4801L127.027 43.4792L127.069 43.4652L127.074 43.4635L127.078 43.4619L127.082 43.4602L127.079 43.461H127.08L127.06 43.4685L127.065 43.466L127.06 43.4677H127.059L127.092 43.4561L127.093 43.4553L127.095 43.4544L127.1 43.4528L127.102 43.4519L127.106 43.4503L127.104 43.4511L127.11 43.4495H127.111H127.112L127.11 43.4503L127.118 43.447H127.119L127.122 43.4462L127.123 43.4453L127.148 43.4371L127.125 43.4453L127.144 43.4387L127.146 43.4379L127.148 43.4371L127.153 43.4354L127.155 43.4346L127.162 43.4321L127.21 43.4156L127.189 43.423L127.212 43.4148L127.227 43.409L127.229 43.4081L127.232 43.4073L127.234 43.4065H127.235L127.239 43.4048H127.24H127.241L127.245 43.4032L127.249 43.4015L127.279 43.3908L127.281 43.39L127.283 43.3891H127.284H127.284L127.299 43.3842H127.3L127.309 43.3809L127.43 43.3395L127.434 43.3379L127.432 43.3387H127.431L127.522 43.3073L127.506 43.3122L127.515 43.3089L127.522 43.3065L127.603 43.2792L127.601 43.28L127.647 43.2643L127.603 43.2792L127.801 43.2114H127.8L132.823 41.4796C132.881 41.4598 132.936 41.4317 132.986 41.3962C133.283 41.1878 133.354 40.7778 133.146 40.4819C133.134 40.4522 133.113 40.4265 133.091 40.4026Z" fill="black"/>
<path d="M126.961 43.502H126.96L126.958 43.503L126.961 43.502Z" fill="black"/>
<path d="M127.105 43.4519L127.103 43.4527L127.101 43.4535L127.097 43.455L127.092 43.4566L127.089 43.4574L127.094 43.4558L127.105 43.4519Z" fill="black"/>
<path d="M138.339 45.8945C138.316 45.8705 138.291 45.849 138.265 45.8284C137.978 45.6068 137.566 45.6597 137.344 45.9458C137.306 45.9945 137.275 46.0483 137.253 46.1053L135.442 50.6699L135.441 50.6707L134.422 53.2423L134.418 53.253L134.42 53.2464L133.621 55.2617L133.62 55.2625L133.344 55.9594L133.343 55.961L132.368 57.22L130.164 60.0652L123.62 68.5123C123.536 68.6206 123.488 68.7521 123.483 68.8893L122.769 87.4261L121.18 89.7142L120.413 90.8185L118.436 93.6662C116.565 92.3288 114.692 90.9814 112.699 89.4406C111.812 88.7545 110.9 88.0295 109.955 87.2509C108.547 86.0903 107.064 84.8099 105.537 83.46C105.327 83.274 105.116 83.0872 104.904 82.8996C104.904 82.8987 104.904 82.8987 104.903 82.8987L103.909 83.7725C104.241 84.0676 104.57 84.3594 104.898 84.6487L104.899 84.6495C106.354 85.9332 107.77 87.1533 109.119 88.2643C110.076 89.0521 110.997 89.7853 111.895 90.4796C114.103 92.1866 116.162 93.6571 118.212 95.1202L118.215 95.1219C118.356 95.2227 118.534 95.2632 118.707 95.2335C118.88 95.2037 119.034 95.1054 119.134 94.9615L121.326 91.8047L121.604 91.4046L123.956 88.0171C124.027 87.9146 124.068 87.7931 124.073 87.6683L124.785 69.1497L134.437 56.6909C134.475 56.6422 134.506 56.5884 134.528 56.5314L134.725 56.0362L135.797 53.334L135.796 53.3332L136.303 52.0586L136.302 52.0577L136.542 51.4527L136.543 51.4502L136.542 51.4518L137.594 48.8017L137.593 48.8009L138.472 46.5872C138.567 46.3549 138.516 46.0813 138.339 45.8945Z" fill="black"/>
<path d="M93.7644 71.085L92.8477 72.0405C93.1221 72.3819 93.3998 72.725 93.6792 73.0697L94.5951 72.1149C94.3165 71.7702 94.0388 71.4264 93.7644 71.085Z" fill="black"/>
<path d="M118.702 47.8245L118.598 47.8971L118.56 47.9244L118.702 47.8245Z" fill="black"/>
<path d="M126.79 43.5603L126.787 43.5617L126.788 43.561L126.79 43.5603Z" fill="black"/>
<path d="M126.812 43.5532L126.81 43.5543H126.809L126.812 43.5532Z" fill="black"/>
<path d="M126.823 43.5505L126.82 43.5516H126.819L126.823 43.5505Z" fill="black"/>
<path d="M126.824 43.5488L126.82 43.5502L126.822 43.5495L126.823 43.5488H126.824Z" fill="black"/>
<path d="M126.905 43.5212L126.9 43.5229L126.903 43.5221L126.897 43.5246L126.905 43.5212Z" fill="black"/>
<path d="M126.899 43.5239L126.896 43.525H126.897L126.899 43.5239Z" fill="black"/>
<path d="M126.926 43.5142L126.924 43.5152H126.925L126.926 43.5142Z" fill="black"/>
<path d="M126.929 43.5125L126.926 43.5138L126.928 43.5131L126.929 43.5125Z" fill="black"/>
<path d="M126.944 43.5085L126.942 43.5094L126.94 43.5102L126.943 43.5094H126.944V43.5085Z" fill="black"/>
<path d="M126.968 43.4998H126.967L126.965 43.5008L126.968 43.4998Z" fill="black"/>
<path d="M127.019 43.4819L127.018 43.4827L127.014 43.4836H127.014L127.019 43.4819Z" fill="black"/>
<path d="M127.024 43.4792L127.023 43.4801L127.019 43.4809H127.019L127.024 43.4792Z" fill="black"/>
<path d="M127.083 43.4604L127.078 43.4628L127.075 43.4635L127.083 43.4604Z" fill="black"/>
<path d="M127.123 43.4468L127.12 43.4481L127.122 43.4474L127.123 43.4468Z" fill="black"/>
<path d="M127.228 43.4102L127.219 43.4133L127.212 43.4157L127.217 43.4141L127.228 43.4102Z" fill="black"/>
<path d="M127.243 43.4041L127.241 43.4047L127.239 43.4054L127.243 43.4041Z" fill="black"/>
<path d="M127.246 43.4041L127.243 43.4051H127.244L127.246 43.4041Z" fill="black"/>
<path d="M127.249 43.4033L127.247 43.4044H127.246L127.249 43.4033Z" fill="black"/>
<path d="M147.007 37.0941L147.005 37.0933C146.975 37.1561 146.944 37.2197 146.913 37.2834C146.721 37.6818 146.524 38.0802 146.317 38.4828C145.388 40.279 144.24 42.1389 142.261 44.3096C140.994 45.6991 139.388 47.2152 137.592 48.8047C136.899 49.4173 136.178 50.0414 135.438 50.6729L134.415 53.2552C135.134 52.6543 135.844 52.0542 136.539 51.4598L137.066 50.1331L136.545 51.4458L136.54 51.4582C139.125 49.2462 141.486 47.1094 143.232 45.1941C145.035 43.2168 146.184 41.4743 147.085 39.8343C147.344 39.3623 147.582 38.8978 147.81 38.4398C147.556 37.991 147.29 37.5413 147.007 37.0941Z" fill="black"/>
<path d="M127.379 43.3574L126.817 43.5517L126.273 43.7393L127.379 43.3574Z" fill="black"/>
<path d="M128.185 43.0793L125.558 43.9853L126.815 43.5513L128.185 43.0793Z" fill="black"/>
<path d="M130.151 41.0134L127.452 41.9434L127.45 41.9442C126.825 42.6113 126.194 43.2941 125.56 43.9843L128.186 43.0791C128.851 42.3691 129.507 41.6772 130.151 41.0134Z" fill="black"/>
<path d="M142.335 32.1196C141.935 31.8121 141.529 31.5112 141.118 31.2136C140.666 31.412 140.209 31.6187 139.743 31.8435C138.007 32.6809 136.155 33.7654 134.016 35.5443C132.023 37.2016 129.78 39.4624 127.453 41.9439L130.152 41.0131C131.822 39.2921 133.41 37.7563 134.855 36.5536C137.153 34.6424 139.09 33.5769 140.957 32.7238V32.723C141.419 32.5131 141.877 32.3147 142.335 32.1196Z" fill="black"/>
<path d="M144.937 34.4074C144.169 33.6023 143.275 32.8459 142.332 32.1194L142.331 32.1185C141.933 31.811 141.526 31.5101 141.116 31.2134C140.664 31.4118 140.207 31.6184 139.741 31.8433C140.154 32.1367 140.559 32.4293 140.955 32.7236L140.956 32.7244C142.083 33.5626 143.125 34.4099 143.988 35.3134C144.024 35.3514 144.06 35.3903 144.097 35.4291C144.988 36.3839 145.683 37.4097 146.319 38.4818C146.582 38.9257 146.834 39.377 147.087 39.8333C147.346 39.3613 147.584 38.8968 147.811 38.4388C147.558 37.9908 147.292 37.5403 147.008 37.0939L147.007 37.0931C146.977 37.1559 146.946 37.2196 146.915 37.2832H146.915C146.945 37.2196 146.976 37.1567 147.006 37.0931C146.45 36.2169 145.82 35.3522 145.056 34.5331C145.017 34.4909 144.977 34.4488 144.937 34.4074Z" fill="black"/>
<path d="M148.107 35.2441L148.069 35.3052L148.066 35.3085L148.064 35.3118L148.107 35.2441Z" fill="black"/>
<path d="M109.936 77.5845L109.782 78.6335L109.415 78.9542L110.308 79.918L120.411 90.8219L121.325 91.808L121.491 91.5691L121.724 91.2335L122.092 90.7045L121.179 89.7184L111.081 78.8211L109.936 77.5845Z" fill="black"/>
<path d="M88.246 54.1755L88.175 54.2202L88.1692 54.2235L88.1683 54.2243L88.1659 54.226L87.1152 54.8864L88.0237 55.866L98.0183 66.6525L98.9119 67.6171L99.0854 67.4361L100.411 67.303L99.2921 66.0953L89.1545 55.1542L88.246 54.1755Z" fill="black"/>
<path d="M127.379 43.3574L126.975 43.4963L126.909 43.5194L126.702 43.5914L126.273 43.7393L127.379 43.3574Z" fill="black"/>
<path d="M98.3145 78.6963C98.3343 78.726 98.3574 78.7541 98.383 78.7813C98.3879 78.7863 98.3929 78.7921 98.3987 78.797C98.4044 78.8028 98.4094 78.8086 98.4144 78.8135C98.4399 78.8399 98.4672 78.8639 98.4953 78.8853L98.4944 78.8845C98.468 78.8606 98.4424 78.8366 98.416 78.8135C98.4102 78.8077 98.4044 78.8028 98.3987 78.797C98.3937 78.7912 98.3879 78.7846 98.383 78.7788C98.3599 78.7516 98.3376 78.7244 98.3145 78.6963Z" fill="black"/>
<path d="M122.79 43.5518L122.29 43.7245C122.232 43.7444 122.177 43.7725 122.127 43.808L109.241 52.8818L90.7086 52.7495C90.583 52.7487 90.4607 52.7834 90.3548 52.8503L88.0742 54.2845L88.247 54.1754L89.1554 55.1558L90.8921 54.0638L109.442 54.1961C109.579 54.1969 109.713 54.1556 109.825 54.0762L118.562 47.9237L120.149 46.8061L118.562 47.9229C119.984 46.4515 121.396 44.9917 122.79 43.5518Z" fill="black"/>
<path d="M122.805 44.9348L120.146 46.8071L121.344 45.964L122.805 44.9348Z" fill="black"/>
<path d="M122.881 44.8821L122.718 44.9655L122.805 44.9349L122.881 44.8821Z" fill="black"/>
<path d="M126.815 43.5518L125.558 43.9857L126.7 43.5914L126.815 43.5518Z" fill="black"/>
<path d="M126.92 43.5154L126.874 43.5311L126.814 43.5517L126.907 43.5195L126.92 43.5154Z" fill="black"/>
<path d="M126.953 43.5042L126.933 43.5108L126.921 43.5149L126.953 43.5042Z" fill="black"/>
<path d="M127.453 41.9438L127.452 41.9447L127.45 41.9455L127.453 41.9438Z" fill="black"/>
<path d="M148.068 35.3059L148.066 35.3092L148.064 35.3124L148.068 35.3059Z" fill="black"/>
<path d="M151.544 29.323C151.308 29.7504 151.072 30.1761 150.835 30.5985C149.782 32.4765 148.711 34.2852 147.514 35.8954C147.285 36.2029 147.052 36.503 146.815 36.7973C146.526 37.1552 146.231 37.5048 145.931 37.8479C146.064 38.0578 146.193 38.2695 146.319 38.4827C145.935 39.2267 145.512 39.9814 145.01 40.7642C145.875 39.878 146.73 38.9605 147.545 37.9777C147.545 37.9777 147.545 37.9768 147.544 37.9768L147.545 37.9777C147.894 37.5569 148.235 37.1254 148.568 36.679C149.662 35.2068 150.651 33.5825 151.596 31.921C151.852 31.4722 152.104 31.0209 152.354 30.5695C152.113 30.1455 151.848 29.7256 151.544 29.323Z" fill="black"/>
<path d="M146.971 37.0367C146.982 37.0557 146.995 37.0739 147.006 37.0929L147.007 37.0945L147.005 37.0937C146.995 37.0739 146.983 37.0549 146.971 37.0367Z" fill="black"/>
<path d="M150.253 27.963C149.879 27.6497 149.476 27.3604 149.062 27.0876C148.604 27.3158 148.146 27.5448 147.69 27.777V27.7779C145.976 28.6524 144.295 29.5716 142.764 30.6049C142.333 30.895 141.915 31.1943 141.507 31.5009C141.507 31.5001 141.506 31.5001 141.506 31.5001C140.455 32.2912 139.471 33.1261 138.521 33.9733C139.36 33.4873 140.163 33.0872 140.955 32.726C141.146 32.8682 141.333 33.0095 141.519 33.1517C141.872 32.8715 142.23 32.5962 142.598 32.3276L142.597 32.3267C142.893 32.1118 143.193 31.901 143.499 31.6935C145.166 30.5685 147.026 29.5791 148.954 28.6111L148.953 28.6103C149.384 28.3937 149.818 28.1788 150.253 27.963Z" fill="black"/>
<path d="M150.918 28.5819C150.893 28.5555 150.868 28.5298 150.842 28.5042C150.657 28.3158 150.459 28.1356 150.254 27.9628C150.239 27.9504 150.225 27.9388 150.211 27.9272V27.9281C149.849 27.628 149.461 27.3503 149.061 27.0874C148.603 27.3155 148.145 27.5445 147.689 27.7768C148.137 28.0479 148.562 28.3207 148.952 28.6092C149.301 28.8671 149.62 29.1358 149.906 29.4251C149.927 29.4466 149.949 29.4689 149.969 29.4904C150.294 29.8301 150.575 30.2013 150.834 30.5972C151.106 31.0138 151.351 31.4561 151.595 31.9198C151.851 31.4709 152.103 31.0196 152.353 30.5683C152.111 30.145 151.846 29.7251 151.543 29.3226L151.542 29.3217C151.351 29.0663 151.145 28.8183 150.918 28.5819Z" fill="black"/>
<path d="M126.44 43.6812L126.41 43.6919L126.408 43.6927L126.235 43.7522L126.264 43.7423L126.106 43.7969L126.383 43.701H126.384L126.412 43.6911L126.411 43.6919L126.44 43.6812Z" fill="black"/>
<path d="M127.835 43.2007L126.108 43.7958L126.873 43.533L126.84 43.5446L126.839 43.5454L126.836 43.5462L126.831 43.5479L126.824 43.5503L126.826 43.5495L126.834 43.547L126.835 43.5462L126.839 43.5454L126.872 43.5338L126.837 43.5454L126.876 43.5322L126.878 43.5313L126.837 43.5454L126.81 43.5545L126.811 43.5536L126.808 43.5545H126.807L126.801 43.557L126.806 43.5553L126.8 43.557L126.792 43.5594L126.787 43.5611L126.701 43.5908L126.611 43.6223L126.448 43.6785L126.466 43.6719L126.412 43.69L126.414 43.6892L126.466 43.671L126.417 43.6876L126.414 43.6884L126.362 43.7066L126.272 43.7372L126.335 43.7157L126.106 43.7942C125.378 45.1796 124.163 46.894 121.674 49.4648C117.839 53.4276 111.026 59.3751 103.992 65.4755L103.993 65.4763C103.662 65.7623 103.331 66.0491 103 66.336L103.888 67.3039C104.218 67.0171 104.55 66.7303 104.88 66.4434C111.89 60.3629 118.74 54.3831 122.617 50.3782C125.945 46.9444 127.116 44.9258 127.835 43.2007L127.236 43.4073L127.234 43.4082H127.235L127.241 43.4057L127.244 43.4049L127.238 43.4065L127.255 43.4007L127.27 43.3949L127.311 43.3809L127.359 43.3644L127.631 43.2701L127.669 43.2569L127.536 43.3024L127.369 43.3602L127.481 43.3214L127.375 43.3577L127.493 43.3172L127.805 43.2098L127.835 43.2007ZM127.312 43.3809L127.277 43.3933L127.288 43.3892L127.29 43.3883H127.289L127.297 43.3858L127.302 43.3842L127.307 43.3817L127.312 43.3809ZM127.035 43.4768L127.034 43.4776L127.032 43.4784L127.035 43.4768ZM126.993 43.4908L126.985 43.4941L126.972 43.4991L126.951 43.5065L126.968 43.5007L126.952 43.5065L126.949 43.5074L126.95 43.5065L126.954 43.5057L126.969 43.5007L126.962 43.5032L126.971 43.4999H126.972L126.991 43.4933H126.99L126.992 43.4925H126.992L126.993 43.4908ZM126.934 43.5115H126.933L126.93 43.5123L126.934 43.5115ZM126.926 43.514L126.925 43.5148L126.922 43.5156L126.921 43.5165H126.921L126.926 43.5148L126.926 43.514ZM126.914 43.5181L126.912 43.5189H126.913L126.914 43.5181ZM126.901 43.5231L126.899 43.5239H126.9L126.895 43.5255L126.892 43.5264L126.898 43.5247L126.901 43.5231ZM126.922 43.5156L126.919 43.5165L126.917 43.5173L126.916 43.5181H126.915H126.914L126.901 43.5222L126.862 43.5355L126.911 43.5181L126.91 43.5189H126.909H126.908L126.906 43.5198L126.904 43.5206H126.905L126.907 43.5198L126.908 43.5189L126.913 43.5173H126.914H126.915L126.917 43.5165L126.92 43.5156L126.918 43.5165L126.922 43.5156ZM126.852 43.5396L126.839 43.5437L126.84 43.5429L126.852 43.5396ZM126.702 43.5917L126.629 43.6173L126.661 43.6057L126.625 43.6181L126.489 43.6652L126.702 43.5917Z" fill="black"/>
<path d="M126.833 43.5459L126.826 43.5484H126.825L126.814 43.5525H126.813L126.806 43.555L126.798 43.5575L126.795 43.5583H126.795L126.793 43.5591L126.791 43.5599H126.79L126.792 43.5591L126.786 43.5616L126.776 43.5649L126.719 43.5847L126.708 43.588L126.71 43.5872L126.702 43.5905L126.786 43.5616L126.79 43.5599H126.791L126.786 43.5616L126.793 43.5591L126.784 43.5624L126.792 43.5599L126.795 43.5591L126.799 43.5575L126.809 43.5542L126.812 43.5533H126.811L126.833 43.5459ZM126.823 43.5492L126.816 43.5517L126.814 43.5525L126.815 43.5517L126.813 43.5525L126.823 43.5492Z" fill="black"/>
<path d="M126.835 43.5461L126.8 43.5577L126.817 43.5519L126.835 43.5461ZM126.814 43.5527L126.81 43.5544L126.794 43.5602L126.8 43.5577L126.793 43.5602H126.794H126.794L126.802 43.5577L126.795 43.5602L126.806 43.5569L126.81 43.5552L126.814 43.5536V43.5527Z" fill="black"/>
<path d="M127.303 43.3833L127.284 43.3899L127.29 43.3883L127.255 43.4007L127.235 43.4073L127.224 43.4114L127.232 43.4089L127.216 43.4147L127.194 43.4221L127.19 43.4238L127.187 43.4246L127.179 43.4279H127.178L127.169 43.4312L127.168 43.4321L127.16 43.4346L127.165 43.4329L127.164 43.4337L127.163 43.4346L127.161 43.4354L127.135 43.4445L127.143 43.442L127.125 43.4486L127.121 43.4494L127.11 43.4536L127.107 43.4544L127.086 43.4618L127.034 43.48H127.035L127.033 43.4808H127.032L127.033 43.48L127.01 43.4883L127.017 43.4858L127.023 43.4841L127.025 43.4833H127.025L127.028 43.4825L127.03 43.4817H127.031H127.032L127.08 43.4651L127.063 43.4709L127.053 43.4742L127.034 43.4808L127.153 43.4395L127.154 43.4387L127.303 43.3833ZM127.268 43.3957L127.254 43.4007L127.259 43.399L127.163 43.4321H127.162L127.155 43.4346L127.125 43.4445L127.121 43.4461L127.117 43.4478L127.119 43.4469L127.109 43.4503L127.126 43.4445L127.156 43.4346L127.145 43.4387L127.147 43.4379L127.159 43.4337L127.162 43.4329L127.164 43.4321H127.165L127.162 43.4329L127.16 43.4337H127.161L127.163 43.4329L127.169 43.4304H127.17L127.218 43.4139L127.237 43.4073L127.234 43.4081L127.237 43.4064L127.244 43.404L127.268 43.3957Z" fill="black"/>
<path d="M126.396 43.6965L126.385 43.7007L126.273 43.7395L126.396 43.6965Z" fill="black"/>
<path d="M126.433 43.6838L126.406 43.6929L126.41 43.6912L126.433 43.6838Z" fill="black"/>
<path d="M126.488 43.6655L126.433 43.6845L126.447 43.6796L126.488 43.6655Z" fill="black"/>
<path d="M126.45 43.6785L126.447 43.6793L126.442 43.6809L126.45 43.6785Z" fill="black"/>
<path d="M126.707 43.5894L126.66 43.6059L126.701 43.5918L126.707 43.5894Z" fill="black"/>
<path d="M126.792 43.5601L126.666 43.6038L126.786 43.5625L126.792 43.5601Z" fill="black"/>
<path d="M126.797 43.5586L126.794 43.5597L126.796 43.5586H126.797Z" fill="black"/>
<path d="M126.962 43.502L126.95 43.5061L126.949 43.507L126.952 43.5061L126.962 43.502Z" fill="black"/>
<path d="M126.988 43.4927L126.979 43.496L126.977 43.4968L126.973 43.4984L126.97 43.4992L126.966 43.5009L126.961 43.5025L126.968 43.5001L126.985 43.4943L126.988 43.4927Z" fill="black"/>
<path d="M126.976 43.4966L126.972 43.4981H126.971L126.976 43.4966Z" fill="black"/>
<path d="M127.227 43.4097L127.224 43.4103H127.224L127.227 43.4097Z" fill="black"/>
<path d="M127.239 43.406L127.235 43.4068H127.236L127.239 43.406Z" fill="black"/>
<path d="M127.246 43.4033L127.245 43.4041L127.243 43.4049L127.246 43.4033Z" fill="black"/>
<path d="M127.302 43.3838L127.3 43.3846L127.289 43.3886L127.302 43.3838Z" fill="black"/>
<path d="M127.567 43.2927L127.494 43.3183L127.481 43.3224L127.537 43.3035L127.567 43.2927Z" fill="black"/>
<path d="M127.833 43.2009L127.566 43.2927L127.804 43.2108L127.833 43.2009Z" fill="black"/>
<path d="M137.301 50.7526C137.134 50.5782 136.876 50.5021 136.63 50.579C136.195 50.7146 135.759 50.8509 135.303 51.0179C133.547 51.6569 131.478 52.7365 127.894 55.9016C123.689 59.6164 117.349 66.2483 110.911 73.0208L110.912 73.0216C110.609 73.339 110.307 73.6564 110.005 73.9747L110.894 74.9443C111.197 74.626 111.499 74.3078 111.801 73.9904C118.273 67.1815 124.596 60.567 128.764 56.8852C131.446 54.5162 133.214 53.3804 134.63 52.7158L134.944 51.9247L134.631 52.715L134.632 52.7133C135.239 52.4306 135.781 52.2322 136.303 52.0611L136.545 51.4519L136.544 51.4535L136.543 51.4552L136.543 51.4585C136.806 51.2328 137.068 51.0072 137.328 50.7832C137.319 50.7724 137.31 50.7625 137.301 50.7526Z" fill="black"/>
<path d="M126.906 43.5208L126.273 43.739L126.84 43.5439L126.906 43.5208Z" fill="black"/>
<path d="M126.908 43.5193L126.9 43.5225L126.896 43.5241L126.908 43.5193Z" fill="black"/>
<path d="M126.916 43.5173L126.914 43.5181L126.901 43.523L126.905 43.5222L126.915 43.519H126.916V43.5173Z" fill="black"/>
<path d="M126.934 43.5105L126.932 43.5113L126.926 43.5136L126.93 43.5121L126.934 43.5105Z" fill="black"/>
<path d="M127.449 41.9451L126.838 42.1559C126.741 42.4129 126.637 42.675 126.518 42.9469C126.83 42.6097 127.141 42.2757 127.449 41.9451Z" fill="black"/>
<path d="M127.377 43.3572L127.221 43.4108L127.283 43.3894L127.377 43.3572Z" fill="black"/>
<path d="M128.192 41.219C128.183 41.2091 128.173 41.2 128.163 41.1909C127.928 41.4397 127.691 41.691 127.453 41.9448L128.372 41.6282C128.362 41.4745 128.298 41.329 128.192 41.219Z" fill="black"/>
<path d="M103.994 65.478C103.662 65.764 103.332 66.0509 103.001 66.3377L103.889 67.3057L110.004 73.974L110.893 74.9436C111.196 74.6253 111.498 74.3071 111.8 73.9897L110.912 73.0209L110.911 73.0201L104.882 66.4443C104.836 66.484 104.79 66.5245 104.743 66.5642H104.743C104.789 66.5245 104.835 66.484 104.881 66.4443L103.994 65.478Z" fill="black"/>
<path d="M112.118 71.7542C111.716 72.1749 111.314 72.5981 110.912 73.0213L110.653 72.7386L110.649 72.7337L110.403 74.4084L109.938 77.5843L109.784 78.6332L109.417 78.954L104.906 82.9035C104.906 82.9035 104.906 82.9027 104.905 82.9027C104.904 82.9019 104.904 82.9019 104.904 82.9019L103.91 83.7756C103.909 83.7748 103.909 83.7739 103.908 83.7739L98.5047 88.5063L98.3766 88.6187L95.3255 91.2912L94.3369 92.1567L95.2346 93.1155L95.7273 92.684L99.0131 89.8074L100.027 88.9196L104.899 84.6543L104.897 84.6526L105.895 83.7814L105.893 83.7806C105.81 83.7078 105.728 83.6343 105.644 83.5607C105.728 83.6343 105.81 83.707 105.893 83.7797L110.307 79.9178L110.828 79.4615C110.945 79.359 111.022 79.2176 111.045 79.0631L111.081 78.8209L111.787 74.0067L111.786 74.0058C111.492 74.3142 111.197 74.6242 110.903 74.9333C111.197 74.6233 111.492 74.3133 111.786 74.0042L112.118 71.7542Z" fill="black"/>
<path d="M106.063 65.418L103.799 65.6453L99.2895 66.0974L98.7117 66.1553C98.5563 66.171 98.4116 66.2413 98.3033 66.3537L98.0157 66.6538L93.7636 71.0852L92.8469 72.0408C92.8469 72.0408 92.8469 72.0408 92.8477 72.0416L92.8469 72.0408L84.9775 80.2433L84.0674 81.1923L84.9659 82.152L85.876 81.203L93.6793 73.0699C93.6726 73.0617 93.6652 73.0534 93.6586 73.0451L93.6594 73.046C93.666 73.0542 93.6726 73.0625 93.6793 73.0699L94.5951 72.1152C94.5951 72.1152 94.5951 72.1152 94.5943 72.1144L98.9093 67.6176L99.0828 67.4366L100.408 67.3035L103.592 66.9844L105.224 66.8207L104.88 66.4454C104.877 66.4479 104.875 66.4504 104.872 66.4521C104.874 66.4496 104.877 66.4471 104.879 66.4446C105.275 66.1032 105.669 65.7602 106.063 65.418Z" fill="black"/>
<path d="M168.827 32.6737C168.823 32.6696 168.819 32.6654 168.815 32.6613C168.639 32.4869 168.379 32.4266 168.144 32.5051C166.02 33.216 163.842 33.9426 161.686 35.0601C159.535 36.1744 157.422 37.6698 155.354 39.1312C155.334 39.1453 155.315 39.1602 155.297 39.1767L131.911 59.9545L127.547 65.5887L156.136 40.1885C158.212 38.7204 160.242 37.2879 162.29 36.2265C163.942 35.371 165.613 34.7518 167.318 34.1699C166.733 35.914 166.09 37.5945 165.085 39.185C163.839 41.1589 162.018 43.0188 160.133 44.9407L124.503 76.4636L123.143 77.6672L123.073 79.4824L124.434 78.2789L161.031 45.8987C161.042 45.8888 161.054 45.8781 161.064 45.8665C162.928 43.9661 164.859 42.0029 166.196 39.8859C167.539 37.759 168.271 35.5016 168.978 33.3317C169.051 33.1002 168.993 32.8481 168.827 32.6737Z" fill="black"/>
<path d="M131.913 59.9539L126.584 64.6879L123.618 68.5159C123.535 68.6242 123.487 68.7557 123.481 68.8929L123.469 69.2119L127.547 65.5889L131.913 59.9539Z" fill="black"/>
<path d="M147.689 10.5478C147.523 10.3734 147.273 10.304 147.04 10.3684C144.84 10.9752 142.55 11.6026 140.366 12.8483C138.19 14.0874 136.14 15.9266 134.157 17.7022C134.145 17.7121 134.135 17.7228 134.124 17.7344L100.11 52.8167L98.8457 54.1203L100.662 54.1335L101.926 52.83L135.044 18.6718C137.049 16.8764 138.989 15.1446 141.015 13.9898C142.651 13.0582 144.358 12.4937 146.127 11.9878C145.468 13.6641 144.774 15.3066 143.843 16.9169C142.69 18.914 141.167 20.8772 139.607 22.8834C133.581 29.0731 127.256 35.5686 127.256 35.5686C120.274 42.7403 112.928 50.2865 112.928 50.2865L109.122 54.1955L109.441 54.198C109.578 54.1988 109.712 54.1575 109.824 54.0782L113.783 51.29L118.755 46.1832L140.577 23.7687C140.594 23.7513 140.61 23.7331 140.624 23.7133C142.179 21.7145 143.769 19.6712 144.98 17.574C146.194 15.472 147.02 13.3285 147.827 11.2389C147.916 11.0074 147.867 10.7454 147.701 10.5619C147.697 10.5569 147.693 10.5528 147.689 10.5478Z" fill="black"/>
<path d="M85.8769 81.2031L84.9668 82.1521L94.3357 92.1574L95.2334 93.1163L96.222 92.2508L95.3243 91.292L85.8769 81.2031Z" fill="black"/>
<path d="M84.9775 80.2429L84.0674 81.1919L84.9659 82.1516L85.876 81.2026L84.9775 80.2429Z" fill="black"/>
<path d="M157.802 47.0037L157.101 47.6236L156.805 47.8857C157.033 48.2535 157.262 48.6354 157.492 49.0297L158.493 48.1427C158.264 47.7542 158.034 47.3723 157.802 47.0037Z" fill="black"/>
<path d="M155.639 44.0912C154.937 43.3572 154.24 42.8546 153.558 42.4768L153.557 42.476C153.117 42.2321 152.684 42.0412 152.26 41.8726L151.153 42.8571C151.615 43.0273 152.064 43.1976 152.506 43.4101L153.029 42.9455L152.506 43.4101C153.24 43.7622 153.956 44.2292 154.688 44.9963C154.742 45.0525 154.795 45.1096 154.849 45.1699C155.486 45.8742 156.138 46.8116 156.802 47.8837L157.792 47.0091L157.8 47.0025C157.142 45.9552 156.481 45.0154 155.823 44.2888C155.762 44.2218 155.701 44.1565 155.639 44.0912Z" fill="black"/>
<path d="M135.68 23.203C135.618 23.1377 135.555 23.074 135.49 23.0087C134.794 22.3185 133.885 21.6151 132.869 20.91C132.512 20.662 132.141 20.414 131.762 20.166L130.831 21.1274C131.215 21.3754 131.587 21.6217 131.943 21.8655L132.407 21.3878L131.944 21.8655C132.984 22.5781 133.892 23.2716 134.566 23.9403C134.623 23.9974 134.677 24.0528 134.731 24.109C135.464 24.8761 135.898 25.6126 136.216 26.3615C136.409 26.8128 136.56 27.2691 136.707 27.7378L137.741 26.6764C137.593 26.2458 137.421 25.8044 137.198 25.3538H137.197C136.851 24.657 136.382 23.9379 135.68 23.203Z" fill="black"/>
<path d="M149.047 50.1795C148.307 49.4058 147.562 48.8718 146.831 48.4527L146.83 48.4519C146.405 48.2081 145.986 48.0031 145.576 47.8113L144.511 48.7594C144.532 48.7743 144.555 48.7867 144.58 48.7974C144.993 48.9867 145.395 49.1719 145.79 49.3785L146.308 48.9189L145.79 49.3794C146.581 49.7927 147.34 50.2928 148.099 51.0872C148.144 51.1343 148.188 51.1814 148.233 51.2302C148.855 51.9113 149.481 52.7999 150.114 53.8042L151.11 52.9239C150.484 51.9435 149.847 51.05 149.202 50.3449C149.15 50.2878 149.098 50.2333 149.047 50.1795Z" fill="black"/>
<path d="M130.923 31.8008L129.95 32.8002C130.139 33.2044 130.306 33.6135 130.476 34.0351C130.486 34.0599 130.497 34.0839 130.51 34.107L131.476 33.1143L131.506 33.0837C131.334 32.6654 131.148 32.2364 130.923 31.8008Z" fill="black"/>
<path d="M151.111 52.9229L150.115 53.804C150.346 54.1702 150.577 54.5505 150.81 54.9414L151.811 54.0561C151.58 53.6701 151.346 53.2907 151.111 52.9229Z" fill="black"/>
<path d="M129.298 29.5083C129.247 29.4546 129.195 29.4008 129.141 29.3479C128.467 28.6718 127.603 27.9948 126.651 27.3244C126.295 27.0731 125.926 26.8226 125.551 26.573L124.621 27.5327C125.001 27.7832 125.371 28.032 125.725 28.2791L126.187 27.8038L125.726 28.28C126.7 28.9586 127.56 29.6232 128.212 30.2762C128.259 30.3234 128.304 30.3696 128.349 30.4168C129.108 31.2111 129.573 31.9931 129.949 32.8015L130.922 31.803C130.537 31.0516 130.038 30.282 129.298 29.5083Z" fill="black"/>
<path d="M137.994 64.5281L137.392 65.0604L137.003 65.4051C137.244 65.7622 137.487 66.1325 137.731 66.5136L138.726 65.6333C138.483 65.2563 138.239 64.886 137.994 64.5281Z" fill="black"/>
<path d="M132.449 59.2587C132.43 59.2479 132.411 59.2364 132.392 59.2256C132.144 59.0735 131.816 59.1008 131.596 59.3108C131.446 59.4538 131.373 59.6579 131.397 59.8629C131.415 60.006 131.477 60.1374 131.574 60.2391C131.595 60.2605 131.617 60.2812 131.641 60.3002L131.911 59.9539L132.449 59.2587Z" fill="black"/>
<path d="M135.881 61.822C135.152 61.0599 134.447 60.5127 133.765 60.0605L133.765 60.0597C133.367 59.796 132.978 59.5646 132.596 59.343L131.911 59.9522L131.643 60.2994C131.667 60.3184 131.692 60.3358 131.719 60.3515L131.733 60.3589C132.077 60.5581 132.413 60.7541 132.748 60.9648L133.255 60.5143L132.749 60.9657C133.474 61.422 134.187 61.9477 134.933 62.7288C135.041 62.8429 135.151 62.9619 135.262 63.0876C135.823 63.7257 136.405 64.5185 137.002 65.4038L137.993 64.5267C137.404 63.6613 136.818 62.8694 136.247 62.2196C136.124 62.0816 136.002 61.9493 135.881 61.822Z" fill="black"/>
<path d="M118.731 44.3242L117.78 45.2996C117.976 45.6443 118.156 45.989 118.339 46.3412L118.347 46.3552C118.375 46.4106 118.412 46.461 118.454 46.5048C118.551 46.6065 118.68 46.6751 118.822 46.6991C119.025 46.733 119.233 46.6685 119.382 46.5263C119.602 46.3164 119.644 45.9898 119.505 45.7353C119.494 45.7154 119.484 45.6956 119.474 45.6766L118.756 46.1816L119.395 45.5253C119.189 45.1335 118.976 44.7334 118.731 44.3242Z" fill="black"/>
<path d="M117.067 42.1311C116.945 42.0038 116.819 41.8765 116.685 41.7484C116.062 41.1483 115.298 40.5267 114.46 39.8976C114.114 39.638 113.756 39.3777 113.389 39.1165L112.465 40.0704C112.835 40.3324 113.194 40.592 113.539 40.8482L113.997 40.3762L113.539 40.849C114.396 41.4864 115.161 42.1038 115.773 42.694C115.894 42.8098 116.008 42.9255 116.117 43.0387C116.862 43.8191 117.356 44.5564 117.778 45.3012L118.729 44.325C118.31 43.6232 117.795 42.8933 117.067 42.1311Z" fill="black"/>
<path d="M116.119 92.0046L116.118 92.0037C115.745 91.7326 115.37 91.4582 114.993 91.1796L113.848 91.9641C113.847 91.9632 113.846 91.9624 113.845 91.9624L104.925 98.0455L100.027 88.9188L99.3894 87.731L98.376 88.6187L99.0133 89.8066L104.114 99.3094C104.142 99.3623 104.177 99.4102 104.218 99.4524C104.304 99.5416 104.414 99.6061 104.536 99.6367C104.717 99.6813 104.908 99.6466 105.062 99.5416L114.968 92.7898L114.966 92.789L114.965 92.7882H114.966L116.119 92.0046Z" fill="black"/>
<path d="M86.0144 60.4954L85.1778 61.6105L77.9821 71.1984C77.8705 71.3472 77.8267 71.5365 77.8631 71.7191C77.8879 71.8431 77.9466 71.9564 78.0326 72.0456C78.0731 72.0878 78.1194 72.125 78.1706 72.1556L87.4312 77.684L88.5884 78.375L89.5209 77.4029L88.3636 76.7119L79.47 71.4025L85.9515 62.7661C85.9515 62.7661 85.9515 62.7661 85.9515 62.7652V62.7661L86.7856 61.6543C86.5252 61.2658 86.269 60.8797 86.0144 60.4954Z" fill="black"/>
<path d="M87.4744 84.0379C87.3215 84.1842 87.1083 84.247 86.9008 84.209C82.6826 83.4229 78.9107 82.7558 75.7762 86.669C72.4755 90.7897 69.8758 99.899 67.2199 109.255C67.1207 109.604 66.7578 109.807 66.409 109.708C66.0602 109.608 65.8576 109.246 65.9568 108.897C68.5714 99.6874 71.2414 90.2317 74.752 85.8482C78.4288 81.258 83.0091 82.1474 87.1421 82.9178L86.5685 83.0889C86.8305 82.8385 87.2463 82.8476 87.4968 83.1104C87.7464 83.3716 87.7373 83.7874 87.4744 84.0379Z" fill="black"/>
<path d="M92.6697 89.4738C92.5167 89.6201 92.444 89.8301 92.4729 90.0392C93.0664 94.2888 93.5608 98.0871 89.5087 101.04C85.2417 104.149 76.0233 106.332 66.5561 108.558C66.2031 108.641 65.9841 108.994 66.0676 109.347C66.151 109.7 66.504 109.919 66.857 109.836C76.1762 107.644 85.7435 105.408 90.2824 102.1C95.0354 98.6368 94.356 94.021 93.774 89.8565L93.5773 90.4219C93.8393 90.1715 93.8492 89.7557 93.5988 89.4936C93.3475 89.2333 92.9317 89.2233 92.6697 89.4738Z" fill="black"/>
<path d="M155.286 25.2937C155.264 25.2714 155.243 25.2482 155.221 25.2259C153.354 23.285 151.059 21.4383 148.673 19.6338H148.672C148.318 19.3652 147.961 19.0982 147.604 18.832C147.482 18.9445 147.359 19.0585 147.234 19.1734C147.033 19.3586 146.83 19.5471 146.623 19.7388C146.981 20.0058 147.337 20.272 147.691 20.5382V20.539C150.127 22.3757 152.426 24.2149 154.275 26.1368C154.296 26.1583 154.316 26.1798 154.337 26.2021C156.17 28.1215 157.568 30.131 158.877 32.191C159.118 32.5695 159.355 32.949 159.592 33.33C159.796 33.13 159.996 32.9316 160.193 32.7373C160.313 32.6183 160.432 32.5001 160.549 32.3827C160.313 32.005 160.075 31.6247 159.832 31.2453L159.831 31.2445C158.544 29.2333 157.128 27.2213 155.286 25.2937Z" fill="black"/>
<path d="M156.883 22.4678C155.113 20.6154 153.108 19.0175 151.047 17.5147H151.046C150.682 17.2494 150.318 16.9873 149.952 16.7278C149.624 17.0146 149.287 17.3122 148.941 17.6214C149.308 17.8809 149.674 18.1421 150.036 18.4042V18.405C152.15 19.9367 154.168 21.5288 155.932 23.3754C155.963 23.4085 155.996 23.4424 156.027 23.4754C157.884 25.4387 159.463 27.7003 160.987 30.0685C161.23 30.4463 161.47 30.8249 161.711 31.2059C162.037 30.8745 162.35 30.5513 162.652 30.2363C162.412 29.8569 162.17 29.4775 161.925 29.0989L161.924 29.0981L161.923 29.0972C160.431 26.7918 158.844 24.5426 156.981 22.572C156.949 22.5372 156.916 22.5025 156.883 22.4678Z" fill="black"/>
<path d="M135.625 36.8006L136.926 37.1395C136.942 37.1371 136.957 37.1238 136.975 37.1007L137.481 36.4295L138.864 36.5188C138.875 36.5171 138.898 36.5006 138.932 36.4683L139.522 35.898C139.502 35.855 139.349 35.7872 139.055 35.7285C138.102 35.5384 137.437 35.421 137.066 35.3433C137.008 35.3317 136.972 35.3326 136.958 35.3458L135.625 36.8006Z" fill="black"/>
<path d="M142.054 43.5277L141.774 42.2126C141.778 42.1969 141.792 42.182 141.815 42.1663L142.508 41.691L142.482 40.3056C142.484 40.294 142.502 40.2717 142.536 40.2394L143.133 39.6765C143.175 39.698 143.236 39.8542 143.281 40.1502C143.427 41.1115 143.514 41.7811 143.575 42.1555C143.584 42.2134 143.581 42.2498 143.567 42.2638L142.054 43.5277Z" fill="black"/>
<path d="M140.675 38.611L138.546 36.9511L139.138 36.0997C139.302 35.8906 139.391 35.7889 139.402 35.7939L142.188 36.9668L140.675 38.611Z" fill="black"/>
<path d="M140.475 38.4005L142.036 40.6035L142.914 40.0513C143.131 39.8959 143.236 39.8124 143.231 39.8008L142.187 36.9639L140.475 38.4005Z" fill="black"/>
<path d="M136.657 39.6077L137.167 40.1846L137.677 40.7616C137.292 41.1022 136.907 41.4419 136.523 41.7825C136.182 41.3981 135.843 41.0129 135.502 40.6285C135.887 40.2888 136.272 39.9482 136.657 39.6077Z" fill="black"/>
<path d="M139.294 42.3674L138.741 41.8309L138.188 41.2944C137.831 41.6631 137.473 42.0318 137.116 42.4013C137.485 42.7584 137.854 43.1163 138.223 43.4734C138.579 43.1055 138.937 42.7369 139.294 42.3674Z" fill="black"/>
<path d="M120.838 92.5101L119.886 91.5802L109.059 81.0111L108.117 80.0911L107.494 80.6366L107.126 80.9582L108.067 81.8774L119.126 92.6721L120.079 93.6021L120.838 92.5101Z" fill="black"/>
<path d="M85.7263 55.7595L84.5996 56.4679L85.4857 57.4624L95.7647 69.0002L96.6409 69.9831L97.5527 69.0325L96.6764 68.0496L86.6124 56.7531L85.7263 55.7595Z" fill="black"/>
<path d="M102.626 84.8955L102.019 85.427L101.638 85.7601L102.528 86.7273L103.377 85.9842L103.517 85.8618L102.626 84.8955Z" fill="black"/>
<path d="M91.7986 73.1357L90.8877 74.0847L91.7788 75.0527L101.639 85.7615L102.537 84.9753L102.627 84.896L92.6889 74.1029L91.7986 73.1357Z" fill="black"/>
<path d="M102.547 84.9653L102.536 84.9753L102.26 85.2166L102.547 84.9653Z" fill="black"/>
<path d="M90.2576 74.7393L89.3467 75.6882L90.2378 76.6553L99.972 87.2187L100.863 88.185L101.851 87.3195L100.96 86.3524L91.1487 75.7047L90.2576 74.7393Z" fill="black"/>
<defs>
<linearGradient id="paint0_linear_303_1373" x1="52.5635" y1="110.897" x2="216.564" y2="5.09027" gradientUnits="userSpaceOnUse">
<stop stop-color="white"/>
<stop offset="1" stop-color="#0EB7FF"/>
</linearGradient>
</defs>
</svg>
