<svg width="80" height="80" viewBox="0 0 80 80" fill="none" xmlns="http://www.w3.org/2000/svg">
<g clip-path="url(#clip0_116_57)">
<path d="M39.9998 36.6667C44.4201 36.6667 48.6593 38.4227 51.785 41.5483C54.9106 44.6739 56.6665 48.9131 56.6665 53.3334V73.3334H23.3332V53.3334C23.3332 48.9131 25.0891 44.6739 28.2147 41.5483C31.3403 38.4227 35.5796 36.6667 39.9998 36.6667ZM17.6265 46.6867C17.096 48.476 16.7827 50.3226 16.6932 52.1868L16.6665 53.3334V73.3334H6.6665V58.3334C6.66585 55.4587 7.7266 52.6849 9.64529 50.5441C11.564 48.4034 14.2055 47.0464 17.0632 46.7334L17.6298 46.6867H17.6265ZM62.3732 46.6867C65.3395 46.8676 68.1252 48.1733 70.1618 50.3375C72.1985 52.5018 73.3327 55.3615 73.3332 58.3334V73.3334H63.3332V53.3334C63.3332 51.0234 62.9998 48.7934 62.3732 46.6867ZM18.3332 26.6667C20.5433 26.6667 22.6629 27.5447 24.2257 29.1075C25.7885 30.6703 26.6665 32.7899 26.6665 35.0001C26.6665 37.2102 25.7885 39.3298 24.2257 40.8926C22.6629 42.4554 20.5433 43.3334 18.3332 43.3334C16.123 43.3334 14.0034 42.4554 12.4406 40.8926C10.8778 39.3298 9.99984 37.2102 9.99984 35.0001C9.99984 32.7899 10.8778 30.6703 12.4406 29.1075C14.0034 27.5447 16.123 26.6667 18.3332 26.6667ZM61.6665 26.6667C63.8766 26.6667 65.9963 27.5447 67.5591 29.1075C69.1219 30.6703 69.9998 32.7899 69.9998 35.0001C69.9998 37.2102 69.1219 39.3298 67.5591 40.8926C65.9963 42.4554 63.8766 43.3334 61.6665 43.3334C59.4564 43.3334 57.3368 42.4554 55.7739 40.8926C54.2111 39.3298 53.3332 37.2102 53.3332 35.0001C53.3332 32.7899 54.2111 30.6703 55.7739 29.1075C57.3368 27.5447 59.4564 26.6667 61.6665 26.6667ZM39.9998 6.66675C43.5361 6.66675 46.9274 8.07151 49.4279 10.572C51.9284 13.0725 53.3332 16.4639 53.3332 20.0001C53.3332 23.5363 51.9284 26.9277 49.4279 29.4282C46.9274 31.9287 43.5361 33.3334 39.9998 33.3334C36.4636 33.3334 33.0722 31.9287 30.5717 29.4282C28.0713 26.9277 26.6665 23.5363 26.6665 20.0001C26.6665 16.4639 28.0713 13.0725 30.5717 10.572C33.0722 8.07151 36.4636 6.66675 39.9998 6.66675Z" fill="white"/>
</g>
<defs>
<clipPath id="clip0_116_57">
<rect width="80" height="80" fill="white"/>
</clipPath>
</defs>
</svg>
