<svg width="32" height="32" viewBox="0 0 32 32" fill="none" xmlns="http://www.w3.org/2000/svg">
<path d="M0.692383 2.19959V3.70681H1.44599H2.19959V14.2705V24.8342H3.23084H4.26209L4.34142 25.0986C4.55296 25.7994 5.13469 26.5662 5.74286 26.9099L6.03373 27.0818L5.62387 27.2933C5.06858 27.571 4.44719 28.2056 4.1431 28.7873C3.8258 29.3955 3.72003 29.9111 3.72003 30.982V31.8811H7.25007H10.7801L10.7537 30.7969C10.7272 29.6203 10.6347 29.2633 10.2381 28.5758C9.97363 28.1395 9.33902 27.5313 8.86306 27.2801L8.4532 27.0686L8.74407 26.8967C9.33902 26.553 9.93397 25.7861 10.1455 25.0854L10.2248 24.821H11.7849H13.345L13.4244 25.0854C13.6359 25.7861 14.2176 26.553 14.8258 26.8967L15.1167 27.0686L14.7068 27.2801C14.2308 27.5313 13.5962 28.1395 13.3318 28.5758C12.9219 29.2633 12.8426 29.6203 12.8162 30.7969L12.7897 31.8811H16.2933H19.8234L19.7969 30.7969C19.7705 29.6203 19.678 29.2765 19.2813 28.589C19.0169 28.1527 18.3823 27.5445 17.9063 27.2933L17.4965 27.0818L17.7873 26.9099C18.3823 26.5662 18.9772 25.7994 19.1888 25.0986L19.2681 24.8342H20.8282H22.3751L22.4544 25.0986C22.6659 25.7994 23.2477 26.5662 23.8558 26.9099L24.1467 27.0818L23.7369 27.2933C23.2609 27.5445 22.6263 28.1527 22.3619 28.589C21.952 29.2765 21.8727 29.6335 21.8462 30.7969L21.8198 31.8811H25.3498H28.8799V31.0085C28.8799 29.9244 28.8138 29.5277 28.4965 28.8799C28.1924 28.232 27.5842 27.5974 26.976 27.2933L26.5662 27.0818L26.857 26.9099C27.571 26.5001 28.1924 25.601 28.3378 24.7417C28.5758 23.3799 27.5578 21.8594 26.1299 21.4364L25.8655 21.357V18.5409C25.8655 16.9941 25.8522 15.7248 25.8258 15.7248C25.8126 15.7248 25.1119 16.0157 24.2921 16.3859C23.4724 16.7561 22.7188 17.0469 22.6263 17.0469C22.5337 17.0469 22.3751 17.0073 22.2825 16.9544C22.19 16.9015 21.4628 16.214 20.6695 15.4075C19.4003 14.1383 19.2284 13.94 19.2284 13.7681C19.2284 13.5037 19.5457 13.1864 19.8102 13.1864C19.982 13.1864 20.1804 13.345 21.3703 14.5482L22.7453 15.9232L24.7152 14.6275L26.6852 13.345L27.2669 13.9135L27.8486 14.482V16.3859V18.2897H28.351H28.8534V16.3859V14.482L29.4219 13.9135L29.9905 13.3582L30.1756 13.5301C30.2813 13.6227 30.44 13.8474 30.5325 14.0193C30.8763 14.6539 30.8763 14.6671 30.8763 18.8979V22.8114H31.3787H31.8811V18.9508C31.8811 14.6671 31.8811 14.5878 31.4712 13.7549C31.1804 13.1732 30.4003 12.3534 29.8979 12.1287L29.5674 11.9832L29.8715 11.8114C30.5854 11.4015 31.2068 10.5025 31.3522 9.6431C31.4844 8.87628 31.1936 7.92435 30.6515 7.3294L30.3871 7.05176V5.38589V3.70681H31.1407H31.8943V2.19959V0.692383H16.2933H0.692383V2.19959ZM30.8895 2.19959V2.702H16.2933H1.69719V2.19959V1.69719H16.2933H30.8895V2.19959ZM29.3823 5.06858C29.3823 6.33782 29.3823 6.43036 29.2765 6.37748C29.2104 6.35104 28.9857 6.29815 28.7741 6.25849C26.9628 5.94118 25.0854 7.81858 25.4027 9.6431C25.5482 10.476 26.1563 11.3883 26.857 11.7982L27.1215 11.9568L26.8835 12.089C26.7513 12.1551 25.7994 12.7501 24.7813 13.4244L22.9171 14.6275L21.8859 13.5962C20.6299 12.3402 20.4448 12.2345 19.6912 12.2609L19.1888 12.2873L18.6203 11.4147C18.303 10.9388 18.0518 10.5157 18.065 10.5025C18.0782 10.476 18.5674 9.92075 19.1491 9.27291C20.0482 8.28133 20.2332 8.10945 20.339 8.13589C20.9604 8.32099 21.357 8.21522 21.8198 7.73926C22.4941 7.06498 22.4941 6.3907 21.8198 5.71642C21.1719 5.06858 20.4183 5.06858 19.7837 5.7032C19.3607 6.11306 19.2152 6.6419 19.3871 7.13108L19.4796 7.40873L18.5013 8.49286C17.9592 9.10104 17.4965 9.59022 17.4832 9.60344C17.47 9.61666 17.2849 9.36546 17.0734 9.06137L16.7032 8.49286L16.4652 8.62507C16.333 8.7044 16.1479 8.82339 16.0554 8.90272C15.8835 9.03493 15.8835 9.04815 15.9893 9.20681C16.0421 9.29935 16.2537 9.60344 16.4388 9.89431L16.7825 10.4232L16.333 10.9123L15.8835 11.4015L15.5926 11.3222C15.3414 11.2561 15.2357 11.2561 14.9712 11.3222L14.6539 11.4015L13.3979 10.1455L12.1287 8.8895L12.208 8.57219C12.3138 8.17556 12.2212 7.7657 11.9568 7.43517C11.5073 6.87988 10.9784 6.65512 10.4628 6.78733C9.69599 6.99887 9.11426 7.84503 9.29935 8.50608C9.33902 8.65152 9.3919 8.82339 9.40512 8.87628C9.43157 8.94238 8.8895 9.66955 7.87147 10.9388C6.44358 12.7104 6.28493 12.8955 6.15272 12.8558C5.91474 12.7633 5.39911 12.803 5.16113 12.922C4.69839 13.1467 4.3282 13.6491 4.24887 14.1251C4.12988 14.8522 4.97604 15.7909 5.74286 15.7909C6.08661 15.7909 6.40392 15.6323 6.74767 15.2885C7.23685 14.7994 7.35584 14.3895 7.15753 13.8474C7.10464 13.6888 7.09142 13.5433 7.11786 13.5037C7.15753 13.4508 10.0794 9.77532 10.1852 9.6431C10.1852 9.6431 10.3306 9.65632 10.4893 9.70921C10.7272 9.77532 10.8462 9.76209 11.1107 9.70921L11.428 9.62988L12.684 10.8727C13.7813 11.97 13.9268 12.1419 13.9003 12.2873C13.7945 12.7501 13.7945 12.8823 13.8739 13.1467C13.9268 13.3715 14.0457 13.5433 14.297 13.7945C14.9712 14.4688 15.6455 14.4688 16.3198 13.7945C16.809 13.3186 16.928 12.8955 16.7296 12.3667L16.6371 12.1022L17.0073 11.7056L17.3775 11.309L17.9328 12.1551C18.4748 12.9881 18.4748 13.0013 18.4087 13.226C18.3691 13.3582 18.3426 13.6227 18.3426 13.8342C18.3426 14.4688 18.4881 14.6671 20.0878 16.2537C21.7669 17.9328 21.833 17.9724 22.7056 17.9592C23.2477 17.9592 23.3006 17.946 23.9352 17.6551C24.3054 17.4965 24.6623 17.3246 24.7417 17.2982L24.8739 17.2453V19.321V21.3835L24.6094 21.4628C23.6311 21.7537 22.7717 22.6131 22.4808 23.5782L22.4015 23.8426H20.8414H19.2813L19.202 23.5782C18.8715 22.4808 17.8534 21.5686 16.7164 21.3703C15.3546 21.1323 13.8342 22.1503 13.4111 23.5782L13.3318 23.8426H11.7585H10.2116L10.1323 23.5782C9.80176 22.4808 8.78373 21.5686 7.64671 21.3703C6.28493 21.1323 4.7645 22.1503 4.34142 23.5782L4.26209 23.8426H3.73325H3.2044V13.7813V3.70681H16.2933H29.3823V5.06858ZM21.1984 6.35104C21.2777 6.43036 21.3306 6.56258 21.3306 6.73445C21.3306 6.90633 21.2909 7.02532 21.1984 7.11786C21.1191 7.19719 20.9869 7.25007 20.815 7.25007C20.6431 7.25007 20.5241 7.21041 20.4316 7.11786C20.3522 7.03854 20.2994 6.90633 20.2994 6.73445C20.2994 6.56258 20.339 6.44358 20.4316 6.35104C20.5109 6.27171 20.6431 6.21882 20.815 6.21882C20.9869 6.23205 21.1191 6.27171 21.1984 6.35104ZM29.2897 7.42195C29.6864 7.60705 30.0169 7.93758 30.202 8.33421C30.3342 8.59863 30.3474 8.73084 30.3474 9.24647C30.3474 9.93397 30.2152 10.2909 29.8186 10.6876C29.4219 11.0842 29.0518 11.2164 28.3775 11.2164C27.8751 11.2164 27.7296 11.19 27.4652 11.071C26.8174 10.7537 26.4207 10.1587 26.3679 9.43157C26.3018 8.42676 26.7645 7.64671 27.6503 7.34262C28.0998 7.18397 28.8667 7.22363 29.2897 7.42195ZM11.1371 7.85825C11.2164 7.93757 11.2693 8.06979 11.2693 8.24166C11.2693 8.57219 11.0974 8.74407 10.7669 8.74407C10.4364 8.74407 10.2645 8.57219 10.2645 8.24166C10.2645 8.06979 10.3042 7.9508 10.3967 7.85825C10.476 7.77892 10.6082 7.72604 10.7801 7.72604C10.9256 7.73926 11.0578 7.77892 11.1371 7.85825ZM15.6587 12.3931C15.7381 12.4724 15.7909 12.6046 15.7909 12.7765C15.7909 13.107 15.6191 13.2789 15.2885 13.2789C14.958 13.2789 14.7861 13.107 14.7861 12.7765C14.7861 12.6046 14.8258 12.4857 14.9183 12.3931C15.0109 12.3006 15.1299 12.2609 15.3018 12.2609C15.4736 12.2609 15.5794 12.3138 15.6587 12.3931ZM28.9195 12.8162C29.0518 12.8558 29.0518 12.8823 28.708 13.2128L28.3643 13.5566L28.0205 13.2128C27.69 12.8823 27.6768 12.8691 27.809 12.8162C27.8883 12.803 28.1395 12.7765 28.3643 12.7765C28.6022 12.7897 28.8402 12.803 28.9195 12.8162ZM6.09983 13.9003C6.17916 13.9796 6.23205 14.1119 6.23205 14.2837C6.23205 14.6143 6.06017 14.7861 5.72964 14.7861C5.39911 14.7861 5.22724 14.6143 5.22724 14.2837C5.22724 13.9532 5.39911 13.7813 5.72964 13.7813C5.8883 13.7813 6.02051 13.821 6.09983 13.9003ZM8.14911 22.5205C8.53253 22.7056 8.87628 23.0361 9.06137 23.4328C9.19359 23.6972 9.20681 23.8294 9.20681 24.345C9.20681 25.0325 9.07459 25.3895 8.67796 25.7861C8.28133 26.1828 7.91113 26.315 7.23685 26.315C6.72123 26.315 6.58902 26.2885 6.32459 26.1695C5.67676 25.8522 5.28012 25.2573 5.22724 24.5301C5.16113 23.5253 5.62387 22.7453 6.50969 22.4412C6.95921 22.2825 7.72604 22.3222 8.14911 22.5205ZM17.2056 22.5205C17.6022 22.7056 17.9328 23.0361 18.1179 23.4328C18.2501 23.6972 18.2633 23.8294 18.2633 24.345C18.2633 25.0325 18.1311 25.3895 17.7344 25.7861C17.3378 26.1828 16.9676 26.315 16.2933 26.315C15.7909 26.315 15.6455 26.2885 15.3811 26.1695C14.7332 25.8522 14.3366 25.2573 14.2837 24.5301C14.2176 23.5253 14.6804 22.7453 15.5662 22.4412C16.0157 22.2825 16.7825 22.3222 17.2056 22.5205ZM26.2621 22.5205C26.6587 22.7056 26.976 23.0361 27.1744 23.4328C27.3066 23.6972 27.333 23.8426 27.333 24.345C27.333 25.0325 27.2008 25.3895 26.8042 25.7861C26.4075 26.1828 26.0373 26.315 25.3631 26.315C24.6756 26.315 24.3186 26.1828 23.9219 25.7861C23.446 25.3102 23.2477 24.4905 23.4063 23.7897C23.565 23.1551 24.0806 22.6131 24.702 22.4147C25.0854 22.2825 25.8919 22.3354 26.2621 22.5205ZM8.17556 28.0205C8.83661 28.2585 9.47123 28.9592 9.65633 29.6599C9.70921 29.8582 9.74887 30.2284 9.74887 30.4532V30.8763H7.23685H4.72483V30.4003C4.72483 29.2501 5.31979 28.3775 6.37748 27.9941C6.70801 27.8751 6.85344 27.8619 7.3294 27.8751C7.64671 27.9015 8.0169 27.9676 8.17556 28.0205ZM17.1131 27.9941C18.1575 28.3114 18.8054 29.2765 18.8054 30.4664V30.8895H16.2933H13.7813V30.4135C13.7813 29.8318 13.9532 29.2765 14.2573 28.8534C14.8655 28.0205 16.0554 27.6635 17.1131 27.9941ZM26.1828 27.9941C26.8967 28.232 27.4256 28.7212 27.7032 29.4219C27.7693 29.607 27.8354 29.9508 27.8486 30.2945L27.8751 30.8763H25.3498H22.8246V30.4135C22.8246 28.9328 23.8558 27.8751 25.3234 27.8619C25.6407 27.8619 25.9183 27.9147 26.1828 27.9941Z" fill="#1F1E1D"/>
<path d="M8.74414 17.2981V17.8005H12.7766H16.809V17.2981V16.7957H12.7766H8.74414V17.2981Z" fill="#25AAE1"/>
<path d="M10.2515 19.3078V19.8102H13.5171H16.7827V19.3078V18.8054H13.5171H10.2515V19.3078Z" fill="#25AAE1"/>
</svg>
